<svg xmlns="http://www.w3.org/2000/svg" xmlns:xlink="http://www.w3.org/1999/xlink" version="1.1" class="marks" width="1018" height="242" viewBox="0 0 1018 242"><rect width="1018" height="242" fill="white"/><g fill="none" stroke-miterlimit="10" transform="translate(131,5)"><g class="mark-group role-frame root" role="graphics-object" aria-roledescription="group mark container"><g transform="translate(0,0)"><path class="background" aria-hidden="true" d="M0.5,0.5h800v200h-800Z" stroke="#ddd"/><g><g class="mark-group role-axis" aria-hidden="true"><g transform="translate(0.5,200.5)"><path class="background" aria-hidden="true" d="M0,0h0v0h0Z" pointer-events="none"/><g><g class="mark-rule role-axis-grid" pointer-events="none"><line transform="translate(0,0)" x2="0" y2="-200" stroke="#ddd" stroke-width="1" opacity="1"/><line transform="translate(33,0)" x2="0" y2="-200" stroke="#ddd" stroke-width="1" opacity="1"/><line transform="translate(67,0)" x2="0" y2="-200" stroke="#ddd" stroke-width="1" opacity="1"/><line transform="translate(100,0)" x2="0" y2="-200" stroke="#ddd" stroke-width="1" opacity="1"/><line transform="translate(133,0)" x2="0" y2="-200" stroke="#ddd" stroke-width="1" opacity="1"/><line transform="translate(167,0)" x2="0" y2="-200" stroke="#ddd" stroke-width="1" opacity="1"/><line transform="translate(200,0)" x2="0" y2="-200" stroke="#ddd" stroke-width="1" opacity="1"/><line transform="translate(233,0)" x2="0" y2="-200" stroke="#ddd" stroke-width="1" opacity="1"/><line transform="translate(267,0)" x2="0" y2="-200" stroke="#ddd" stroke-width="1" opacity="1"/><line transform="translate(300,0)" x2="0" y2="-200" stroke="#ddd" stroke-width="1" opacity="1"/><line transform="translate(333,0)" x2="0" y2="-200" stroke="#ddd" stroke-width="1" opacity="1"/><line transform="translate(367,0)" x2="0" y2="-200" stroke="#ddd" stroke-width="1" opacity="1"/><line transform="translate(400,0)" x2="0" y2="-200" stroke="#ddd" stroke-width="1" opacity="1"/><line transform="translate(433,0)" x2="0" y2="-200" stroke="#ddd" stroke-width="1" opacity="1"/><line transform="translate(467,0)" x2="0" y2="-200" stroke="#ddd" stroke-width="1" opacity="1"/><line transform="translate(500,0)" x2="0" y2="-200" stroke="#ddd" stroke-width="1" opacity="1"/><line transform="translate(533,0)" x2="0" y2="-200" stroke="#ddd" stroke-width="1" opacity="1"/><line transform="translate(567,0)" x2="0" y2="-200" stroke="#ddd" stroke-width="1" opacity="1"/><line transform="translate(600,0)" x2="0" y2="-200" stroke="#ddd" stroke-width="1" opacity="1"/><line transform="translate(633,0)" x2="0" y2="-200" stroke="#ddd" stroke-width="1" opacity="1"/><line transform="translate(667,0)" x2="0" y2="-200" stroke="#ddd" stroke-width="1" opacity="1"/><line transform="translate(700,0)" x2="0" y2="-200" stroke="#ddd" stroke-width="1" opacity="1"/><line transform="translate(733,0)" x2="0" y2="-200" stroke="#ddd" stroke-width="1" opacity="1"/><line transform="translate(767,0)" x2="0" y2="-200" stroke="#ddd" stroke-width="1" opacity="1"/><line transform="translate(800,0)" x2="0" y2="-200" stroke="#ddd" stroke-width="1" opacity="1"/></g></g><path class="foreground" aria-hidden="true" d="" pointer-events="none" display="none"/></g></g><g class="mark-group role-axis" role="graphics-symbol" aria-roledescription="axis" aria-label="X-axis titled 'Types of People' for a linear scale with values from 0 to 24"><g transform="translate(0.5,200.5)"><path class="background" aria-hidden="true" d="M0,0h0v0h0Z" pointer-events="none"/><g><g class="mark-rule role-axis-tick" pointer-events="none"><line transform="translate(0,0)" x2="0" y2="5" stroke="#888" stroke-width="1" opacity="1"/><line transform="translate(33,0)" x2="0" y2="5" stroke="#888" stroke-width="1" opacity="1"/><line transform="translate(67,0)" x2="0" y2="5" stroke="#888" stroke-width="1" opacity="1"/><line transform="translate(100,0)" x2="0" y2="5" stroke="#888" stroke-width="1" opacity="1"/><line transform="translate(133,0)" x2="0" y2="5" stroke="#888" stroke-width="1" opacity="1"/><line transform="translate(167,0)" x2="0" y2="5" stroke="#888" stroke-width="1" opacity="1"/><line transform="translate(200,0)" x2="0" y2="5" stroke="#888" stroke-width="1" opacity="1"/><line transform="translate(233,0)" x2="0" y2="5" stroke="#888" stroke-width="1" opacity="1"/><line transform="translate(267,0)" x2="0" y2="5" stroke="#888" stroke-width="1" opacity="1"/><line transform="translate(300,0)" x2="0" y2="5" stroke="#888" stroke-width="1" opacity="1"/><line transform="translate(333,0)" x2="0" y2="5" stroke="#888" stroke-width="1" opacity="1"/><line transform="translate(367,0)" x2="0" y2="5" stroke="#888" stroke-width="1" opacity="1"/><line transform="translate(400,0)" x2="0" y2="5" stroke="#888" stroke-width="1" opacity="1"/><line transform="translate(433,0)" x2="0" y2="5" stroke="#888" stroke-width="1" opacity="1"/><line transform="translate(467,0)" x2="0" y2="5" stroke="#888" stroke-width="1" opacity="1"/><line transform="translate(500,0)" x2="0" y2="5" stroke="#888" stroke-width="1" opacity="1"/><line transform="translate(533,0)" x2="0" y2="5" stroke="#888" stroke-width="1" opacity="1"/><line transform="translate(567,0)" x2="0" y2="5" stroke="#888" stroke-width="1" opacity="1"/><line transform="translate(600,0)" x2="0" y2="5" stroke="#888" stroke-width="1" opacity="1"/><line transform="translate(633,0)" x2="0" y2="5" stroke="#888" stroke-width="1" opacity="1"/><line transform="translate(667,0)" x2="0" y2="5" stroke="#888" stroke-width="1" opacity="1"/><line transform="translate(700,0)" x2="0" y2="5" stroke="#888" stroke-width="1" opacity="1"/><line transform="translate(733,0)" x2="0" y2="5" stroke="#888" stroke-width="1" opacity="1"/><line transform="translate(767,0)" x2="0" y2="5" stroke="#888" stroke-width="1" opacity="1"/><line transform="translate(800,0)" x2="0" y2="5" stroke="#888" stroke-width="1" opacity="1"/></g><g class="mark-text role-axis-label" pointer-events="none"><text text-anchor="start" transform="translate(0,15)" font-family="sans-serif" font-size="10px" fill="#000" opacity="1">0</text><text text-anchor="middle" transform="translate(33.33333333333333,15)" font-family="sans-serif" font-size="10px" fill="#000" opacity="1">1</text><text text-anchor="middle" transform="translate(66.66666666666666,15)" font-family="sans-serif" font-size="10px" fill="#000" opacity="1">2</text><text text-anchor="middle" transform="translate(100,15)" font-family="sans-serif" font-size="10px" fill="#000" opacity="1">3</text><text text-anchor="middle" transform="translate(133.33333333333331,15)" font-family="sans-serif" font-size="10px" fill="#000" opacity="1">4</text><text text-anchor="middle" transform="translate(166.66666666666669,15)" font-family="sans-serif" font-size="10px" fill="#000" opacity="1">5</text><text text-anchor="middle" transform="translate(200,15)" font-family="sans-serif" font-size="10px" fill="#000" opacity="1">6</text><text text-anchor="middle" transform="translate(233.33333333333334,15)" font-family="sans-serif" font-size="10px" fill="#000" opacity="1">7</text><text text-anchor="middle" transform="translate(266.66666666666663,15)" font-family="sans-serif" font-size="10px" fill="#000" opacity="1">8</text><text text-anchor="middle" transform="translate(300,15)" font-family="sans-serif" font-size="10px" fill="#000" opacity="1">9</text><text text-anchor="middle" transform="translate(333.33333333333337,15)" font-family="sans-serif" font-size="10px" fill="#000" opacity="1">10</text><text text-anchor="middle" transform="translate(366.66666666666663,15)" font-family="sans-serif" font-size="10px" fill="#000" opacity="1">11</text><text text-anchor="middle" transform="translate(400,15)" font-family="sans-serif" font-size="10px" fill="#000" opacity="1">12</text><text text-anchor="middle" transform="translate(433.3333333333333,15)" font-family="sans-serif" font-size="10px" fill="#000" opacity="1">13</text><text text-anchor="middle" transform="translate(466.6666666666667,15)" font-family="sans-serif" font-size="10px" fill="#000" opacity="1">14</text><text text-anchor="middle" transform="translate(500,15)" font-family="sans-serif" font-size="10px" fill="#000" opacity="1">15</text><text text-anchor="middle" transform="translate(533.3333333333333,15)" font-family="sans-serif" font-size="10px" fill="#000" opacity="1">16</text><text text-anchor="middle" transform="translate(566.6666666666667,15)" font-family="sans-serif" font-size="10px" fill="#000" opacity="1">17</text><text text-anchor="middle" transform="translate(600,15)" font-family="sans-serif" font-size="10px" fill="#000" opacity="1">18</text><text text-anchor="middle" transform="translate(633.3333333333333,15)" font-family="sans-serif" font-size="10px" fill="#000" opacity="1">19</text><text text-anchor="middle" transform="translate(666.6666666666667,15)" font-family="sans-serif" font-size="10px" fill="#000" opacity="1">20</text><text text-anchor="middle" transform="translate(700,15)" font-family="sans-serif" font-size="10px" fill="#000" opacity="1">21</text><text text-anchor="middle" transform="translate(733.3333333333333,15)" font-family="sans-serif" font-size="10px" fill="#000" opacity="1">22</text><text text-anchor="middle" transform="translate(766.6666666666667,15)" font-family="sans-serif" font-size="10px" fill="#000" opacity="1">23</text><text text-anchor="end" transform="translate(800,15)" font-family="sans-serif" font-size="10px" fill="#000" opacity="1">24</text></g><g class="mark-rule role-axis-domain" pointer-events="none"><line transform="translate(0,0)" x2="800" y2="0" stroke="#888" stroke-width="1" opacity="1"/></g><g class="mark-text role-axis-title" pointer-events="none"><text text-anchor="middle" transform="translate(400,30)" font-family="sans-serif" font-size="11px" font-weight="bold" fill="#000" opacity="1">Types of People</text></g></g><path class="foreground" aria-hidden="true" d="" pointer-events="none" display="none"/></g></g><g class="mark-group role-axis" role="graphics-symbol" aria-roledescription="axis" aria-label="Y-axis titled 'Food' for a discrete scale with 5 values: Black Pudding, Fish, Haggis, Irnbru, Vegetables"><g transform="translate(0.5,0.5)"><path class="background" aria-hidden="true" d="M0,0h0v0h0Z" pointer-events="none"/><g><g class="mark-rule role-axis-tick" pointer-events="none"><line transform="translate(0,20)" x2="-5" y2="0" stroke="#888" stroke-width="1" opacity="1"/><line transform="translate(0,60)" x2="-5" y2="0" stroke="#888" stroke-width="1" opacity="1"/><line transform="translate(0,100)" x2="-5" y2="0" stroke="#888" stroke-width="1" opacity="1"/><line transform="translate(0,140)" x2="-5" y2="0" stroke="#888" stroke-width="1" opacity="1"/><line transform="translate(0,180)" x2="-5" y2="0" stroke="#888" stroke-width="1" opacity="1"/></g><g class="mark-text role-axis-label" pointer-events="none"><text text-anchor="end" transform="translate(-7,22.5)" font-family="sans-serif" font-size="10px" fill="#000" opacity="1">Black Pudding</text><text text-anchor="end" transform="translate(-7,62.5)" font-family="sans-serif" font-size="10px" fill="#000" opacity="1">Fish</text><text text-anchor="end" transform="translate(-7,102.5)" font-family="sans-serif" font-size="10px" fill="#000" opacity="1">Haggis</text><text text-anchor="end" transform="translate(-7,142.5)" font-family="sans-serif" font-size="10px" fill="#000" opacity="1">Irnbru</text><text text-anchor="end" transform="translate(-7,182.5)" font-family="sans-serif" font-size="10px" fill="#000" opacity="1">Vegetables</text></g><g class="mark-rule role-axis-domain" pointer-events="none"><line transform="translate(0,0)" x2="0" y2="200" stroke="#888" stroke-width="1" opacity="1"/></g><g class="mark-text role-axis-title" pointer-events="none"><text text-anchor="middle" transform="translate(-115,100) rotate(-90) translate(0,-2)" font-family="sans-serif" font-size="11px" font-weight="bold" fill="#000" opacity="1">Food</text></g></g><path class="foreground" aria-hidden="true" d="" pointer-events="none" display="none"/></g></g><g class="mark-rect role-mark marks" role="graphics-object" aria-roledescription="rect mark container"><path aria-label="Types of People: 12; Food: Haggis; Type: Sane" role="graphics-symbol" aria-roledescription="bar" d="M66.66666666666666,82h400v36h-400Z" fill="rgba(54,162,235,0.5)"/><path aria-label="Types of People: 2; Food: Haggis; Type: Insane" role="graphics-symbol" aria-roledescription="bar" d="M0,82h66.66666666666666v36h-66.66666666666666Z" fill="rgba(255,99,132,0.5)"/><path aria-label="Types of People: 19; Food: Irnbru; Type: Sane" role="graphics-symbol" aria-roledescription="bar" d="M100,122h633.3333333333333v36h-633.3333333333333Z" fill="rgba(54,162,235,0.5)"/><path aria-label="Types of People: 3; Food: Irnbru; Type: Insane" role="graphics-symbol" aria-roledescription="bar" d="M0,122h100v36h-100Z" fill="rgba(255,99,132,0.5)"/><path aria-label="Types of People: 3; Food: Vegetables; Type: Sane" role="graphics-symbol" aria-roledescription="bar" d="M666.6666666666667,162h100v36h-100Z" fill="rgba(54,162,235,0.5)"/><path aria-label="Types of People: 20; Food: Vegetables; Type: Insane" role="graphics-symbol" aria-roledescription="bar" d="M0,162h666.6666666666667v36h-666.6666666666667Z" fill="rgba(255,99,132,0.5)"/><path aria-label="Types of People: 5; Food: Black Pudding; Type: Sane" role="graphics-symbol" aria-roledescription="bar" d="M500,2h166.66666666666674v36h-166.66666666666674Z" fill="rgba(54,162,235,0.5)"/><path aria-label="Types of People: 15; Food: Black Pudding; Type: Insane" role="graphics-symbol" aria-roledescription="bar" d="M0,2h500v36h-500Z" fill="rgba(255,99,132,0.5)"/><path aria-label="Types of People: 20; Food: Fish; Type: Sane" role="graphics-symbol" aria-roledescription="bar" d="M66.66666666666666,42h666.6666666666666v36h-666.6666666666666Z" fill="rgba(54,162,235,0.5)"/><path aria-label="Types of People: 2; Food: Fish; Type: Insane" role="graphics-symbol" aria-roledescription="bar" d="M0,42h66.66666666666666v36h-66.66666666666666Z" fill="rgba(255,99,132,0.5)"/></g><g class="mark-group role-legend" role="graphics-symbol" aria-roledescription="legend" aria-label="Symbol legend titled 'Type' for fill color with 2 values: Insane, Sane"><g transform="translate(818,0)"><path class="background" aria-hidden="true" d="M0,0h64v40h-64Z" pointer-events="none"/><g><g class="mark-group role-legend-entry"><g transform="translate(0,16)"><path class="background" aria-hidden="true" d="M0,0h0v0h0Z" pointer-events="none"/><g><g class="mark-group role-scope" role="graphics-object" aria-roledescription="group mark container"><g transform="translate(0,0)"><path class="background" aria-hidden="true" d="M0,0h64v11h-64Z" pointer-events="none" opacity="1"/><g><g class="mark-symbol role-legend-symbol" pointer-events="none"><path transform="translate(6,6)" d="M-5,-5h10v10h-10Z" fill="rgba(255,99,132,0.5)" stroke-width="1.5" opacity="1"/></g><g class="mark-text role-legend-label" pointer-events="none"><text text-anchor="start" transform="translate(16,9)" font-family="sans-serif" font-size="10px" fill="#000" opacity="1">Insane</text></g></g><path class="foreground" aria-hidden="true" d="" pointer-events="none" display="none"/></g><g transform="translate(0,13)"><path class="background" aria-hidden="true" d="M0,0h64v11h-64Z" pointer-events="none" opacity="1"/><g><g class="mark-symbol role-legend-symbol" pointer-events="none"><path transform="translate(6,6)" d="M-5,-5h10v10h-10Z" fill="rgba(54,162,235,0.5)" stroke-width="1.5" opacity="1"/></g><g class="mark-text role-legend-label" pointer-events="none"><text text-anchor="start" transform="translate(16,9)" font-family="sans-serif" font-size="10px" fill="#000" opacity="1">Sane</text></g></g><path class="foreground" aria-hidden="true" d="" pointer-events="none" display="none"/></g></g></g><path class="foreground" aria-hidden="true" d="" pointer-events="none" display="none"/></g></g><g class="mark-text role-legend-title" pointer-events="none"><text text-anchor="start" transform="translate(0,9)" font-family="sans-serif" font-size="11px" font-weight="bold" fill="#000" opacity="1">Type</text></g></g><path class="foreground" aria-hidden="true" d="" pointer-events="none" display="none"/></g></g></g><path class="foreground" aria-hidden="true" d="" display="none"/></g></g></g></svg>