<?xml version="1.0" encoding="UTF-8"?>
<svg xmlns="http://www.w3.org/2000/svg" xmlns:xlink="http://www.w3.org/1999/xlink" width="800pt" height="600pt" viewBox="0 0 800 600" version="1.1">
<defs>
<clipPath id="H6VYxvEZv8__clip1">
  <path d="M 428.476562 58.890625 L 484.097656 58.890625 L 484.097656 112.675781 L 428.476562 112.675781 Z M 428.476562 58.890625 "/>
</clipPath>
<clipPath id="H6VYxvEZv8__clip2">
  <path d="M 623.140625 166.460938 L 706.570312 166.460938 L 706.570312 220.246094 L 623.140625 220.246094 Z M 623.140625 166.460938 "/>
</clipPath>
<clipPath id="H6VYxvEZv8__clip3">
  <path d="M 178.1875 274.027344 L 734.378906 274.027344 L 734.378906 327.8125 L 178.1875 327.8125 Z M 178.1875 274.027344 "/>
</clipPath>
<clipPath id="H6VYxvEZv8__clip4">
  <path d="M 233.808594 381.597656 L 650.953125 381.597656 L 650.953125 435.382812 L 233.808594 435.382812 Z M 233.808594 381.597656 "/>
</clipPath>
<clipPath id="H6VYxvEZv8__clip5">
  <path d="M 650.953125 489.164062 L 706.574219 489.164062 L 706.574219 542.949219 L 650.953125 542.949219 Z M 650.953125 489.164062 "/>
</clipPath>
<clipPath id="H6VYxvEZv8__clip6">
  <path d="M 94.761719 58 L 429 58 L 429 113 L 94.761719 113 Z M 94.761719 58 "/>
</clipPath>
<clipPath id="H6VYxvEZv8__clip7">
  <path d="M 94.761719 58.890625 L 428.476562 58.890625 L 428.476562 112.675781 L 94.761719 112.675781 Z M 94.761719 58.890625 "/>
</clipPath>
<clipPath id="H6VYxvEZv8__clip8">
  <path d="M 94.761719 166 L 624 166 L 624 221 L 94.761719 221 Z M 94.761719 166 "/>
</clipPath>
<clipPath id="H6VYxvEZv8__clip9">
  <path d="M 94.761719 166.460938 L 623.144531 166.460938 L 623.144531 220.246094 L 94.761719 220.246094 Z M 94.761719 166.460938 "/>
</clipPath>
<clipPath id="H6VYxvEZv8__clip10">
  <path d="M 94.761719 274 L 179 274 L 179 328 L 94.761719 328 Z M 94.761719 274 "/>
</clipPath>
<clipPath id="H6VYxvEZv8__clip11">
  <path d="M 94.761719 274.027344 L 178.191406 274.027344 L 178.191406 327.8125 L 94.761719 327.8125 Z M 94.761719 274.027344 "/>
</clipPath>
<clipPath id="H6VYxvEZv8__clip12">
  <path d="M 94.761719 381 L 234 381 L 234 436 L 94.761719 436 Z M 94.761719 381 "/>
</clipPath>
<clipPath id="H6VYxvEZv8__clip13">
  <path d="M 94.761719 381.597656 L 233.808594 381.597656 L 233.808594 435.382812 L 94.761719 435.382812 Z M 94.761719 381.597656 "/>
</clipPath>
<clipPath id="H6VYxvEZv8__clip14">
  <path d="M 94.761719 489 L 651 489 L 651 543 L 94.761719 543 Z M 94.761719 489 "/>
</clipPath>
<clipPath id="H6VYxvEZv8__clip15">
  <path d="M 94.761719 489.164062 L 650.953125 489.164062 L 650.953125 542.949219 L 94.761719 542.949219 Z M 94.761719 489.164062 "/>
</clipPath>
</defs>
<g id="surface102568">
<path style="fill-rule:nonzero;fill:rgb(100%,38.823529%,51.764706%);fill-opacity:0.498039;stroke-width:1;stroke-linecap:butt;stroke-linejoin:miter;stroke:rgb(100%,38.823529%,51.764706%);stroke-opacity:1;stroke-miterlimit:10;" d="M 316 10 L 356 10 L 356 22 L 316 22 Z M 316 10 "/>
<path style=" stroke:none;fill-rule:nonzero;fill:rgb(40%,40%,40%);fill-opacity:1;" d="M 369.453125 17.878906 C 369.453125 18.640625 369.15625 19.234375 368.5625 19.660156 C 367.96875 20.078125 367.128906 20.285156 366.046875 20.285156 C 364.035156 20.285156 362.867188 19.582031 362.546875 18.175781 L 363.625 17.957031 C 363.75 18.457031 364.015625 18.828125 364.421875 19.066406 C 364.828125 19.296875 365.378906 19.410156 366.078125 19.410156 C 366.804688 19.410156 367.363281 19.285156 367.75 19.035156 C 368.144531 18.785156 368.34375 18.421875 368.34375 17.941406 C 368.34375 17.671875 368.28125 17.453125 368.15625 17.285156 C 368.039062 17.121094 367.867188 16.984375 367.640625 16.878906 C 367.421875 16.765625 367.15625 16.671875 366.84375 16.597656 C 366.539062 16.515625 366.203125 16.433594 365.828125 16.347656 C 365.171875 16.203125 364.671875 16.0625 364.328125 15.925781 C 363.992188 15.78125 363.726562 15.621094 363.53125 15.441406 C 363.34375 15.253906 363.195312 15.046875 363.09375 14.816406 C 362.988281 14.578125 362.9375 14.300781 362.9375 13.988281 C 362.9375 13.28125 363.207031 12.738281 363.75 12.363281 C 364.289062 11.980469 365.0625 11.785156 366.0625 11.785156 C 367 11.785156 367.71875 11.933594 368.21875 12.222656 C 368.71875 12.503906 369.066406 12.988281 369.265625 13.675781 L 368.15625 13.878906 C 368.039062 13.441406 367.8125 13.125 367.46875 12.925781 C 367.125 12.730469 366.65625 12.628906 366.0625 12.628906 C 365.394531 12.628906 364.882812 12.738281 364.53125 12.957031 C 364.1875 13.175781 364.015625 13.5 364.015625 13.925781 C 364.015625 14.1875 364.082031 14.402344 364.21875 14.566406 C 364.351562 14.734375 364.546875 14.875 364.796875 14.988281 C 365.054688 15.105469 365.566406 15.246094 366.328125 15.410156 C 366.578125 15.464844 366.828125 15.519531 367.078125 15.582031 C 367.335938 15.644531 367.582031 15.71875 367.8125 15.800781 C 368.039062 15.886719 368.253906 15.984375 368.453125 16.097656 C 368.648438 16.214844 368.820312 16.355469 368.96875 16.519531 C 369.125 16.675781 369.242188 16.871094 369.328125 17.097656 C 369.410156 17.316406 369.453125 17.578125 369.453125 17.878906 Z M 372.421875 20.285156 C 371.785156 20.285156 371.304688 20.121094 370.984375 19.785156 C 370.671875 19.441406 370.515625 18.980469 370.515625 18.394531 C 370.515625 17.738281 370.726562 17.234375 371.15625 16.878906 C 371.59375 16.527344 372.289062 16.339844 373.25 16.316406 L 374.671875 16.285156 L 374.671875 15.941406 C 374.671875 15.433594 374.5625 15.066406 374.34375 14.847656 C 374.125 14.621094 373.78125 14.503906 373.3125 14.503906 C 372.84375 14.503906 372.5 14.589844 372.28125 14.753906 C 372.0625 14.910156 371.929688 15.167969 371.890625 15.519531 L 370.796875 15.410156 C 370.972656 14.277344 371.816406 13.707031 373.328125 13.707031 C 374.128906 13.707031 374.726562 13.890625 375.125 14.253906 C 375.53125 14.621094 375.734375 15.144531 375.734375 15.832031 L 375.734375 18.566406 C 375.734375 18.878906 375.773438 19.113281 375.859375 19.269531 C 375.941406 19.425781 376.097656 19.503906 376.328125 19.503906 C 376.429688 19.503906 376.546875 19.496094 376.671875 19.472656 L 376.671875 20.128906 C 376.410156 20.191406 376.140625 20.222656 375.859375 20.222656 C 375.472656 20.222656 375.1875 20.121094 375 19.910156 C 374.820312 19.703125 374.722656 19.378906 374.703125 18.941406 L 374.671875 18.941406 C 374.398438 19.433594 374.082031 19.78125 373.71875 19.988281 C 373.363281 20.183594 372.929688 20.285156 372.421875 20.285156 Z M 372.671875 19.488281 C 373.054688 19.488281 373.398438 19.402344 373.703125 19.222656 C 374.003906 19.046875 374.238281 18.808594 374.40625 18.503906 C 374.582031 18.191406 374.671875 17.875 374.671875 17.550781 L 374.671875 17.035156 L 373.515625 17.050781 C 373.015625 17.0625 372.632812 17.113281 372.375 17.207031 C 372.125 17.300781 371.929688 17.449219 371.796875 17.644531 C 371.660156 17.832031 371.59375 18.089844 371.59375 18.410156 C 371.59375 18.753906 371.6875 19.019531 371.875 19.207031 C 372.0625 19.394531 372.328125 19.488281 372.671875 19.488281 Z M 381.828125 20.160156 L 381.828125 16.144531 C 381.828125 15.730469 381.785156 15.40625 381.703125 15.175781 C 381.628906 14.9375 381.5 14.769531 381.3125 14.675781 C 381.132812 14.574219 380.875 14.519531 380.53125 14.519531 C 380.019531 14.519531 379.617188 14.699219 379.328125 15.050781 C 379.035156 15.394531 378.890625 15.875 378.890625 16.488281 L 378.890625 20.160156 L 377.828125 20.160156 L 377.828125 15.175781 C 377.828125 14.4375 377.816406 13.984375 377.796875 13.816406 L 378.796875 13.816406 C 378.796875 13.839844 378.796875 13.894531 378.796875 13.988281 C 378.804688 14.074219 378.8125 14.171875 378.8125 14.285156 C 378.820312 14.390625 378.832031 14.597656 378.84375 14.910156 L 378.859375 14.910156 C 379.097656 14.472656 379.375 14.167969 379.6875 13.988281 C 380.007812 13.800781 380.410156 13.707031 380.890625 13.707031 C 381.578125 13.707031 382.082031 13.878906 382.40625 14.222656 C 382.726562 14.566406 382.890625 15.140625 382.890625 15.941406 L 382.890625 20.160156 Z M 385.625 17.207031 C 385.625 17.9375 385.769531 18.5 386.0625 18.894531 C 386.363281 19.292969 386.804688 19.488281 387.390625 19.488281 C 387.847656 19.488281 388.210938 19.402344 388.484375 19.222656 C 388.765625 19.035156 388.953125 18.800781 389.046875 18.519531 L 389.96875 18.769531 C 389.59375 19.78125 388.734375 20.285156 387.390625 20.285156 C 386.453125 20.285156 385.738281 20.003906 385.25 19.441406 C 384.757812 18.878906 384.515625 18.046875 384.515625 16.941406 C 384.515625 15.902344 384.757812 15.105469 385.25 14.550781 C 385.738281 13.988281 386.4375 13.707031 387.34375 13.707031 C 389.207031 13.707031 390.140625 14.828125 390.140625 17.066406 L 390.140625 17.207031 Z M 389.046875 16.410156 C 388.992188 15.734375 388.828125 15.246094 388.546875 14.941406 C 388.265625 14.640625 387.859375 14.488281 387.328125 14.488281 C 386.816406 14.488281 386.410156 14.660156 386.109375 15.003906 C 385.816406 15.339844 385.65625 15.808594 385.625 16.410156 Z M 362 9.296875 "/>
<path style="fill-rule:nonzero;fill:rgb(21.176471%,63.529412%,92.156863%);fill-opacity:0.498039;stroke-width:1;stroke-linecap:butt;stroke-linejoin:miter;stroke:rgb(21.176471%,63.529412%,92.156863%);stroke-opacity:1;stroke-miterlimit:10;" d="M 401 10 L 441 10 L 441 22 L 401 22 Z M 401 10 "/>
<path style=" stroke:none;fill-rule:nonzero;fill:rgb(40%,40%,40%);fill-opacity:1;" d="M 448.109375 20.160156 L 448.109375 11.910156 L 449.234375 11.910156 L 449.234375 20.160156 Z M 454.828125 20.160156 L 454.828125 16.144531 C 454.828125 15.730469 454.785156 15.40625 454.703125 15.175781 C 454.628906 14.9375 454.5 14.769531 454.3125 14.675781 C 454.132812 14.574219 453.875 14.519531 453.53125 14.519531 C 453.019531 14.519531 452.617188 14.699219 452.328125 15.050781 C 452.035156 15.394531 451.890625 15.875 451.890625 16.488281 L 451.890625 20.160156 L 450.828125 20.160156 L 450.828125 15.175781 C 450.828125 14.4375 450.816406 13.984375 450.796875 13.816406 L 451.796875 13.816406 C 451.796875 13.839844 451.796875 13.894531 451.796875 13.988281 C 451.804688 14.074219 451.8125 14.171875 451.8125 14.285156 C 451.820312 14.390625 451.832031 14.597656 451.84375 14.910156 L 451.859375 14.910156 C 452.097656 14.472656 452.375 14.167969 452.6875 13.988281 C 453.007812 13.800781 453.410156 13.707031 453.890625 13.707031 C 454.578125 13.707031 455.082031 13.878906 455.40625 14.222656 C 455.726562 14.566406 455.890625 15.140625 455.890625 15.941406 L 455.890625 20.160156 Z M 462.5625 18.410156 C 462.5625 19.003906 462.335938 19.46875 461.890625 19.800781 C 461.441406 20.125 460.8125 20.285156 460 20.285156 C 459.207031 20.285156 458.597656 20.15625 458.171875 19.894531 C 457.742188 19.636719 457.460938 19.230469 457.328125 18.675781 L 458.265625 18.488281 C 458.359375 18.832031 458.546875 19.082031 458.828125 19.238281 C 459.109375 19.394531 459.5 19.472656 460 19.472656 C 460.53125 19.472656 460.921875 19.394531 461.171875 19.238281 C 461.421875 19.074219 461.546875 18.824219 461.546875 18.488281 C 461.546875 18.238281 461.457031 18.035156 461.28125 17.878906 C 461.113281 17.722656 460.835938 17.59375 460.453125 17.488281 L 459.703125 17.300781 C 459.085938 17.144531 458.648438 16.996094 458.390625 16.847656 C 458.140625 16.691406 457.941406 16.503906 457.796875 16.285156 C 457.660156 16.066406 457.59375 15.800781 457.59375 15.488281 C 457.59375 14.917969 457.796875 14.480469 458.203125 14.175781 C 458.617188 13.875 459.21875 13.722656 460 13.722656 C 460.707031 13.722656 461.265625 13.847656 461.671875 14.097656 C 462.085938 14.339844 462.347656 14.730469 462.453125 15.269531 L 461.5 15.394531 C 461.445312 15.113281 461.289062 14.902344 461.03125 14.753906 C 460.78125 14.597656 460.4375 14.519531 460 14.519531 C 459.53125 14.519531 459.179688 14.59375 458.953125 14.738281 C 458.722656 14.886719 458.609375 15.105469 458.609375 15.394531 C 458.609375 15.574219 458.65625 15.71875 458.75 15.832031 C 458.84375 15.949219 458.976562 16.046875 459.15625 16.128906 C 459.34375 16.214844 459.734375 16.328125 460.328125 16.472656 C 460.890625 16.621094 461.289062 16.75 461.53125 16.863281 C 461.78125 16.980469 461.972656 17.109375 462.109375 17.253906 C 462.253906 17.402344 462.363281 17.574219 462.4375 17.769531 C 462.519531 17.957031 462.5625 18.171875 462.5625 18.410156 Z M 465.421875 20.285156 C 464.785156 20.285156 464.304688 20.121094 463.984375 19.785156 C 463.671875 19.441406 463.515625 18.980469 463.515625 18.394531 C 463.515625 17.738281 463.726562 17.234375 464.15625 16.878906 C 464.59375 16.527344 465.289062 16.339844 466.25 16.316406 L 467.671875 16.285156 L 467.671875 15.941406 C 467.671875 15.433594 467.5625 15.066406 467.34375 14.847656 C 467.125 14.621094 466.78125 14.503906 466.3125 14.503906 C 465.84375 14.503906 465.5 14.589844 465.28125 14.753906 C 465.0625 14.910156 464.929688 15.167969 464.890625 15.519531 L 463.796875 15.410156 C 463.972656 14.277344 464.816406 13.707031 466.328125 13.707031 C 467.128906 13.707031 467.726562 13.890625 468.125 14.253906 C 468.53125 14.621094 468.734375 15.144531 468.734375 15.832031 L 468.734375 18.566406 C 468.734375 18.878906 468.773438 19.113281 468.859375 19.269531 C 468.941406 19.425781 469.097656 19.503906 469.328125 19.503906 C 469.429688 19.503906 469.546875 19.496094 469.671875 19.472656 L 469.671875 20.128906 C 469.410156 20.191406 469.140625 20.222656 468.859375 20.222656 C 468.472656 20.222656 468.1875 20.121094 468 19.910156 C 467.820312 19.703125 467.722656 19.378906 467.703125 18.941406 L 467.671875 18.941406 C 467.398438 19.433594 467.082031 19.78125 466.71875 19.988281 C 466.363281 20.183594 465.929688 20.285156 465.421875 20.285156 Z M 465.671875 19.488281 C 466.054688 19.488281 466.398438 19.402344 466.703125 19.222656 C 467.003906 19.046875 467.238281 18.808594 467.40625 18.503906 C 467.582031 18.191406 467.671875 17.875 467.671875 17.550781 L 467.671875 17.035156 L 466.515625 17.050781 C 466.015625 17.0625 465.632812 17.113281 465.375 17.207031 C 465.125 17.300781 464.929688 17.449219 464.796875 17.644531 C 464.660156 17.832031 464.59375 18.089844 464.59375 18.410156 C 464.59375 18.753906 464.6875 19.019531 464.875 19.207031 C 465.0625 19.394531 465.328125 19.488281 465.671875 19.488281 Z M 474.828125 20.160156 L 474.828125 16.144531 C 474.828125 15.730469 474.785156 15.40625 474.703125 15.175781 C 474.628906 14.9375 474.5 14.769531 474.3125 14.675781 C 474.132812 14.574219 473.875 14.519531 473.53125 14.519531 C 473.019531 14.519531 472.617188 14.699219 472.328125 15.050781 C 472.035156 15.394531 471.890625 15.875 471.890625 16.488281 L 471.890625 20.160156 L 470.828125 20.160156 L 470.828125 15.175781 C 470.828125 14.4375 470.816406 13.984375 470.796875 13.816406 L 471.796875 13.816406 C 471.796875 13.839844 471.796875 13.894531 471.796875 13.988281 C 471.804688 14.074219 471.8125 14.171875 471.8125 14.285156 C 471.820312 14.390625 471.832031 14.597656 471.84375 14.910156 L 471.859375 14.910156 C 472.097656 14.472656 472.375 14.167969 472.6875 13.988281 C 473.007812 13.800781 473.410156 13.707031 473.890625 13.707031 C 474.578125 13.707031 475.082031 13.878906 475.40625 14.222656 C 475.726562 14.566406 475.890625 15.140625 475.890625 15.941406 L 475.890625 20.160156 Z M 478.625 17.207031 C 478.625 17.9375 478.769531 18.5 479.0625 18.894531 C 479.363281 19.292969 479.804688 19.488281 480.390625 19.488281 C 480.847656 19.488281 481.210938 19.402344 481.484375 19.222656 C 481.765625 19.035156 481.953125 18.800781 482.046875 18.519531 L 482.96875 18.769531 C 482.59375 19.78125 481.734375 20.285156 480.390625 20.285156 C 479.453125 20.285156 478.738281 20.003906 478.25 19.441406 C 477.757812 18.878906 477.515625 18.046875 477.515625 16.941406 C 477.515625 15.902344 477.757812 15.105469 478.25 14.550781 C 478.738281 13.988281 479.4375 13.707031 480.34375 13.707031 C 482.207031 13.707031 483.140625 14.828125 483.140625 17.066406 L 483.140625 17.207031 Z M 482.046875 16.410156 C 481.992188 15.734375 481.828125 15.246094 481.546875 14.941406 C 481.265625 14.640625 480.859375 14.488281 480.328125 14.488281 C 479.816406 14.488281 479.410156 14.660156 479.109375 15.003906 C 478.816406 15.339844 478.65625 15.808594 478.625 16.410156 Z M 447 9.296875 "/>
<path style="fill:none;stroke-width:1;stroke-linecap:butt;stroke-linejoin:miter;stroke:rgb(0%,0%,0%);stroke-opacity:0.247059;stroke-miterlimit:10;" d="M 94.5 570 L 94.5 579.839844 M 94.5 32 L 94.5 569 "/>
<path style="fill:none;stroke-width:1;stroke-linecap:butt;stroke-linejoin:miter;stroke:rgb(0%,0%,0%);stroke-opacity:0.0980392;stroke-miterlimit:10;" d="M 233.5 570 L 233.5 579.839844 M 233.5 32 L 233.5 569 "/>
<path style="fill:none;stroke-width:1;stroke-linecap:butt;stroke-linejoin:miter;stroke:rgb(0%,0%,0%);stroke-opacity:0.0980392;stroke-miterlimit:10;" d="M 372.5 570 L 372.5 579.839844 M 372.5 32 L 372.5 569 "/>
<path style="fill:none;stroke-width:1;stroke-linecap:butt;stroke-linejoin:miter;stroke:rgb(0%,0%,0%);stroke-opacity:0.0980392;stroke-miterlimit:10;" d="M 511.5 570 L 511.5 579.839844 M 511.5 32 L 511.5 569 "/>
<path style="fill:none;stroke-width:1;stroke-linecap:butt;stroke-linejoin:miter;stroke:rgb(0%,0%,0%);stroke-opacity:0.0980392;stroke-miterlimit:10;" d="M 650.5 570 L 650.5 579.839844 M 650.5 32 L 650.5 569 "/>
<path style="fill:none;stroke-width:1;stroke-linecap:butt;stroke-linejoin:miter;stroke:rgb(0%,0%,0%);stroke-opacity:0.0980392;stroke-miterlimit:10;" d="M 790.5 570 L 790.5 579.839844 M 790.5 32 L 790.5 569 "/>
<path style="fill:none;stroke-width:1;stroke-linecap:butt;stroke-linejoin:miter;stroke:rgb(0%,0%,0%);stroke-opacity:0.0980392;stroke-miterlimit:10;" d="M 94 569.5 L 791 569.5 "/>
<path style=" stroke:none;fill-rule:nonzero;fill:rgb(40%,40%,40%);fill-opacity:1;" d="M 97.964844 587.074219 C 97.964844 588.449219 97.71875 589.503906 97.230469 590.230469 C 96.75 590.960938 96.035156 591.324219 95.089844 591.324219 C 94.140625 591.324219 93.425781 590.964844 92.949219 590.246094 C 92.46875 589.519531 92.230469 588.460938 92.230469 587.074219 C 92.230469 585.648438 92.457031 584.585938 92.917969 583.886719 C 93.386719 583.179688 94.121094 582.824219 95.121094 582.824219 C 96.089844 582.824219 96.800781 583.183594 97.261719 583.902344 C 97.730469 584.613281 97.964844 585.667969 97.964844 587.074219 Z M 96.902344 587.074219 C 96.902344 585.878906 96.761719 585.011719 96.480469 584.480469 C 96.207031 583.941406 95.753906 583.667969 95.121094 583.667969 C 94.472656 583.667969 94.003906 583.933594 93.714844 584.464844 C 93.433594 584.996094 93.292969 585.867188 93.292969 587.074219 C 93.292969 588.242188 93.433594 589.097656 93.714844 589.636719 C 94.003906 590.179688 94.464844 590.449219 95.089844 590.449219 C 95.714844 590.449219 96.171875 590.175781 96.464844 589.621094 C 96.753906 589.070312 96.902344 588.222656 96.902344 587.074219 Z M 91.761719 580.335938 "/>
<path style=" stroke:none;fill-rule:nonzero;fill:rgb(40%,40%,40%);fill-opacity:1;" d="M 236.980469 588.511719 C 236.980469 589.378906 236.71875 590.066406 236.199219 590.574219 C 235.6875 591.074219 234.96875 591.324219 234.042969 591.324219 C 233.28125 591.324219 232.660156 591.160156 232.183594 590.824219 C 231.714844 590.480469 231.417969 589.992188 231.292969 589.355469 L 232.355469 589.230469 C 232.574219 590.042969 233.144531 590.449219 234.074219 590.449219 C 234.636719 590.449219 235.078125 590.285156 235.402344 589.949219 C 235.722656 589.605469 235.886719 589.132812 235.886719 588.527344 C 235.886719 588.007812 235.722656 587.589844 235.402344 587.277344 C 235.078125 586.957031 234.640625 586.792969 234.089844 586.792969 C 233.808594 586.792969 233.542969 586.839844 233.292969 586.933594 C 233.050781 587.019531 232.808594 587.167969 232.558594 587.386719 L 231.527344 587.386719 L 231.808594 582.949219 L 236.496094 582.949219 L 236.496094 583.839844 L 232.761719 583.839844 L 232.605469 586.464844 C 233.0625 586.113281 233.628906 585.933594 234.308594 585.933594 C 235.121094 585.933594 235.765625 586.175781 236.246094 586.652344 C 236.734375 587.121094 236.980469 587.742188 236.980469 588.511719 Z M 230.808594 580.335938 "/>
<path style=" stroke:none;fill-rule:nonzero;fill:rgb(40%,40%,40%);fill-opacity:1;" d="M 366.777344 591.199219 L 366.777344 590.308594 L 368.871094 590.308594 L 368.871094 583.949219 L 367.011719 585.277344 L 367.011719 584.277344 L 368.964844 582.949219 L 369.933594 582.949219 L 369.933594 590.308594 L 371.949219 590.308594 L 371.949219 591.199219 Z M 379.058594 587.074219 C 379.058594 588.449219 378.8125 589.503906 378.324219 590.230469 C 377.84375 590.960938 377.128906 591.324219 376.183594 591.324219 C 375.234375 591.324219 374.519531 590.964844 374.042969 590.246094 C 373.5625 589.519531 373.324219 588.460938 373.324219 587.074219 C 373.324219 585.648438 373.550781 584.585938 374.011719 583.886719 C 374.480469 583.179688 375.214844 582.824219 376.214844 582.824219 C 377.183594 582.824219 377.894531 583.183594 378.355469 583.902344 C 378.824219 584.613281 379.058594 585.667969 379.058594 587.074219 Z M 377.996094 587.074219 C 377.996094 585.878906 377.855469 585.011719 377.574219 584.480469 C 377.300781 583.941406 376.847656 583.667969 376.214844 583.667969 C 375.566406 583.667969 375.097656 583.933594 374.808594 584.464844 C 374.527344 584.996094 374.386719 585.867188 374.386719 587.074219 C 374.386719 588.242188 374.527344 589.097656 374.808594 589.636719 C 375.097656 590.179688 375.558594 590.449219 376.183594 590.449219 C 376.808594 590.449219 377.265625 590.175781 377.558594 589.621094 C 377.847656 589.070312 377.996094 588.222656 377.996094 587.074219 Z M 365.855469 580.335938 "/>
<path style=" stroke:none;fill-rule:nonzero;fill:rgb(40%,40%,40%);fill-opacity:1;" d="M 505.824219 591.199219 L 505.824219 590.308594 L 507.917969 590.308594 L 507.917969 583.949219 L 506.058594 585.277344 L 506.058594 584.277344 L 508.011719 582.949219 L 508.980469 582.949219 L 508.980469 590.308594 L 510.996094 590.308594 L 510.996094 591.199219 Z M 518.074219 588.511719 C 518.074219 589.378906 517.8125 590.066406 517.292969 590.574219 C 516.78125 591.074219 516.0625 591.324219 515.136719 591.324219 C 514.375 591.324219 513.753906 591.160156 513.277344 590.824219 C 512.808594 590.480469 512.511719 589.992188 512.386719 589.355469 L 513.449219 589.230469 C 513.667969 590.042969 514.238281 590.449219 515.167969 590.449219 C 515.730469 590.449219 516.171875 590.285156 516.496094 589.949219 C 516.816406 589.605469 516.980469 589.132812 516.980469 588.527344 C 516.980469 588.007812 516.816406 587.589844 516.496094 587.277344 C 516.171875 586.957031 515.734375 586.792969 515.183594 586.792969 C 514.902344 586.792969 514.636719 586.839844 514.386719 586.933594 C 514.144531 587.019531 513.902344 587.167969 513.652344 587.386719 L 512.621094 587.386719 L 512.902344 582.949219 L 517.589844 582.949219 L 517.589844 583.839844 L 513.855469 583.839844 L 513.699219 586.464844 C 514.15625 586.113281 514.722656 585.933594 515.402344 585.933594 C 516.214844 585.933594 516.859375 586.175781 517.339844 586.652344 C 517.828125 587.121094 518.074219 587.742188 518.074219 588.511719 Z M 504.902344 580.335938 "/>
<path style=" stroke:none;fill-rule:nonzero;fill:rgb(40%,40%,40%);fill-opacity:1;" d="M 644.5625 591.199219 L 644.5625 590.449219 C 644.757812 589.992188 645 589.589844 645.28125 589.246094 C 645.570312 588.894531 645.875 588.574219 646.1875 588.292969 C 646.507812 588.011719 646.820312 587.753906 647.125 587.511719 C 647.4375 587.261719 647.71875 587.019531 647.96875 586.777344 C 648.21875 586.539062 648.421875 586.289062 648.578125 586.027344 C 648.734375 585.757812 648.8125 585.457031 648.8125 585.121094 C 648.8125 584.664062 648.675781 584.308594 648.40625 584.058594 C 648.144531 583.808594 647.78125 583.683594 647.3125 583.683594 C 646.851562 583.683594 646.476562 583.808594 646.1875 584.058594 C 645.90625 584.300781 645.738281 584.636719 645.6875 585.074219 L 644.609375 584.980469 C 644.679688 584.324219 644.957031 583.804688 645.4375 583.417969 C 645.925781 583.023438 646.550781 582.824219 647.3125 582.824219 C 648.132812 582.824219 648.769531 583.023438 649.21875 583.417969 C 649.664062 583.804688 649.890625 584.355469 649.890625 585.074219 C 649.890625 585.398438 649.816406 585.722656 649.671875 586.042969 C 649.523438 586.355469 649.304688 586.675781 649.015625 586.996094 C 648.734375 587.308594 648.179688 587.792969 647.359375 588.449219 C 646.910156 588.824219 646.550781 589.160156 646.28125 589.449219 C 646.019531 589.742188 645.832031 590.027344 645.71875 590.308594 L 650.03125 590.308594 L 650.03125 591.199219 Z M 657.15625 587.074219 C 657.15625 588.449219 656.910156 589.503906 656.421875 590.230469 C 655.941406 590.960938 655.226562 591.324219 654.28125 591.324219 C 653.332031 591.324219 652.617188 590.964844 652.140625 590.246094 C 651.660156 589.519531 651.421875 588.460938 651.421875 587.074219 C 651.421875 585.648438 651.648438 584.585938 652.109375 583.886719 C 652.578125 583.179688 653.3125 582.824219 654.3125 582.824219 C 655.28125 582.824219 655.992188 583.183594 656.453125 583.902344 C 656.921875 584.613281 657.15625 585.667969 657.15625 587.074219 Z M 656.09375 587.074219 C 656.09375 585.878906 655.953125 585.011719 655.671875 584.480469 C 655.398438 583.941406 654.945312 583.667969 654.3125 583.667969 C 653.664062 583.667969 653.195312 583.933594 652.90625 584.464844 C 652.625 584.996094 652.484375 585.867188 652.484375 587.074219 C 652.484375 588.242188 652.625 589.097656 652.90625 589.636719 C 653.195312 590.179688 653.65625 590.449219 654.28125 590.449219 C 654.90625 590.449219 655.363281 590.175781 655.65625 589.621094 C 655.945312 589.070312 656.09375 588.222656 656.09375 587.074219 Z M 643.953125 580.335938 "/>
<path style=" stroke:none;fill-rule:nonzero;fill:rgb(40%,40%,40%);fill-opacity:1;" d="M 783.609375 591.199219 L 783.609375 590.449219 C 783.804688 589.992188 784.046875 589.589844 784.328125 589.246094 C 784.617188 588.894531 784.921875 588.574219 785.234375 588.292969 C 785.554688 588.011719 785.867188 587.753906 786.171875 587.511719 C 786.484375 587.261719 786.765625 587.019531 787.015625 586.777344 C 787.265625 586.539062 787.46875 586.289062 787.625 586.027344 C 787.78125 585.757812 787.859375 585.457031 787.859375 585.121094 C 787.859375 584.664062 787.722656 584.308594 787.453125 584.058594 C 787.191406 583.808594 786.828125 583.683594 786.359375 583.683594 C 785.898438 583.683594 785.523438 583.808594 785.234375 584.058594 C 784.953125 584.300781 784.785156 584.636719 784.734375 585.074219 L 783.65625 584.980469 C 783.726562 584.324219 784.003906 583.804688 784.484375 583.417969 C 784.972656 583.023438 785.597656 582.824219 786.359375 582.824219 C 787.179688 582.824219 787.816406 583.023438 788.265625 583.417969 C 788.710938 583.804688 788.9375 584.355469 788.9375 585.074219 C 788.9375 585.398438 788.863281 585.722656 788.71875 586.042969 C 788.570312 586.355469 788.351562 586.675781 788.0625 586.996094 C 787.78125 587.308594 787.226562 587.792969 786.40625 588.449219 C 785.957031 588.824219 785.597656 589.160156 785.328125 589.449219 C 785.066406 589.742188 784.878906 590.027344 784.765625 590.308594 L 789.078125 590.308594 L 789.078125 591.199219 Z M 796.171875 588.511719 C 796.171875 589.378906 795.910156 590.066406 795.390625 590.574219 C 794.878906 591.074219 794.160156 591.324219 793.234375 591.324219 C 792.472656 591.324219 791.851562 591.160156 791.375 590.824219 C 790.90625 590.480469 790.609375 589.992188 790.484375 589.355469 L 791.546875 589.230469 C 791.765625 590.042969 792.335938 590.449219 793.265625 590.449219 C 793.828125 590.449219 794.269531 590.285156 794.59375 589.949219 C 794.914062 589.605469 795.078125 589.132812 795.078125 588.527344 C 795.078125 588.007812 794.914062 587.589844 794.59375 587.277344 C 794.269531 586.957031 793.832031 586.792969 793.28125 586.792969 C 793 586.792969 792.734375 586.839844 792.484375 586.933594 C 792.242188 587.019531 792 587.167969 791.75 587.386719 L 790.71875 587.386719 L 791 582.949219 L 795.6875 582.949219 L 795.6875 583.839844 L 791.953125 583.839844 L 791.796875 586.464844 C 792.253906 586.113281 792.820312 585.933594 793.5 585.933594 C 794.3125 585.933594 794.957031 586.175781 795.4375 586.652344 C 795.925781 587.121094 796.171875 587.742188 796.171875 588.511719 Z M 783 580.335938 "/>
<path style="fill:none;stroke-width:1;stroke-linecap:butt;stroke-linejoin:miter;stroke:rgb(0%,0%,0%);stroke-opacity:0.247059;stroke-miterlimit:10;" d="M 84.761719 32.5 L 94 32.5 M 95 32.5 L 790 32.5 "/>
<path style="fill:none;stroke-width:1;stroke-linecap:butt;stroke-linejoin:miter;stroke:rgb(0%,0%,0%);stroke-opacity:0.0980392;stroke-miterlimit:10;" d="M 84.761719 139.5 L 94 139.5 M 95 139.5 L 790 139.5 "/>
<path style="fill:none;stroke-width:1;stroke-linecap:butt;stroke-linejoin:miter;stroke:rgb(0%,0%,0%);stroke-opacity:0.0980392;stroke-miterlimit:10;" d="M 84.761719 247.5 L 94 247.5 M 95 247.5 L 790 247.5 "/>
<path style="fill:none;stroke-width:1;stroke-linecap:butt;stroke-linejoin:miter;stroke:rgb(0%,0%,0%);stroke-opacity:0.0980392;stroke-miterlimit:10;" d="M 84.761719 354.5 L 94 354.5 M 95 354.5 L 790 354.5 "/>
<path style="fill:none;stroke-width:1;stroke-linecap:butt;stroke-linejoin:miter;stroke:rgb(0%,0%,0%);stroke-opacity:0.0980392;stroke-miterlimit:10;" d="M 84.761719 462.5 L 94 462.5 M 95 462.5 L 790 462.5 "/>
<path style="fill:none;stroke-width:1;stroke-linecap:butt;stroke-linejoin:miter;stroke:rgb(0%,0%,0%);stroke-opacity:0.0980392;stroke-miterlimit:10;" d="M 84.761719 569.5 L 94 569.5 M 95 569.5 L 790 569.5 "/>
<path style="fill:none;stroke-width:1;stroke-linecap:butt;stroke-linejoin:miter;stroke:rgb(0%,0%,0%);stroke-opacity:0.0980392;stroke-miterlimit:10;" d="M 94.5 32 L 94.5 570 "/>
<path style=" stroke:none;fill-rule:nonzero;fill:rgb(40%,40%,40%);fill-opacity:1;" d="M 52.324219 89.945312 L 52.324219 86.117188 L 47.871094 86.117188 L 47.871094 89.945312 L 46.746094 89.945312 L 46.746094 81.695312 L 47.871094 81.695312 L 47.871094 85.179688 L 52.324219 85.179688 L 52.324219 81.695312 L 53.449219 81.695312 L 53.449219 89.945312 Z M 57.183594 90.070312 C 56.546875 90.070312 56.066406 89.90625 55.746094 89.570312 C 55.433594 89.226562 55.277344 88.765625 55.277344 88.179688 C 55.277344 87.523438 55.488281 87.019531 55.917969 86.664062 C 56.355469 86.3125 57.050781 86.125 58.011719 86.101562 L 59.433594 86.070312 L 59.433594 85.726562 C 59.433594 85.21875 59.324219 84.851562 59.105469 84.632812 C 58.886719 84.40625 58.542969 84.289062 58.074219 84.289062 C 57.605469 84.289062 57.261719 84.375 57.042969 84.539062 C 56.824219 84.695312 56.691406 84.953125 56.652344 85.304688 L 55.558594 85.195312 C 55.734375 84.0625 56.578125 83.492188 58.089844 83.492188 C 58.890625 83.492188 59.488281 83.675781 59.886719 84.039062 C 60.292969 84.40625 60.496094 84.929688 60.496094 85.617188 L 60.496094 88.351562 C 60.496094 88.664062 60.535156 88.898438 60.621094 89.054688 C 60.703125 89.210938 60.859375 89.289062 61.089844 89.289062 C 61.191406 89.289062 61.308594 89.28125 61.433594 89.257812 L 61.433594 89.914062 C 61.171875 89.976562 60.902344 90.007812 60.621094 90.007812 C 60.234375 90.007812 59.949219 89.90625 59.761719 89.695312 C 59.582031 89.488281 59.484375 89.164062 59.464844 88.726562 L 59.433594 88.726562 C 59.160156 89.21875 58.84375 89.566406 58.480469 89.773438 C 58.125 89.96875 57.691406 90.070312 57.183594 90.070312 Z M 57.433594 89.273438 C 57.816406 89.273438 58.160156 89.1875 58.464844 89.007812 C 58.765625 88.832031 59 88.59375 59.167969 88.289062 C 59.34375 87.976562 59.433594 87.660156 59.433594 87.335938 L 59.433594 86.820312 L 58.277344 86.835938 C 57.777344 86.847656 57.394531 86.898438 57.136719 86.992188 C 56.886719 87.085938 56.691406 87.234375 56.558594 87.429688 C 56.421875 87.617188 56.355469 87.875 56.355469 88.195312 C 56.355469 88.539062 56.449219 88.804688 56.636719 88.992188 C 56.824219 89.179688 57.089844 89.273438 57.433594 89.273438 Z M 64.980469 92.429688 C 64.28125 92.429688 63.722656 92.292969 63.308594 92.023438 C 62.902344 91.75 62.640625 91.367188 62.527344 90.867188 L 63.589844 90.726562 C 63.660156 91.015625 63.816406 91.242188 64.058594 91.398438 C 64.296875 91.554688 64.609375 91.632812 64.996094 91.632812 C 66.046875 91.632812 66.574219 91.015625 66.574219 89.789062 L 66.574219 88.773438 C 66.363281 89.179688 66.089844 89.488281 65.746094 89.695312 C 65.402344 89.894531 64.996094 89.992188 64.527344 89.992188 C 63.746094 89.992188 63.171875 89.738281 62.808594 89.226562 C 62.441406 88.707031 62.261719 87.894531 62.261719 86.789062 C 62.261719 85.664062 62.457031 84.835938 62.855469 84.304688 C 63.25 83.773438 63.847656 83.507812 64.652344 83.507812 C 65.097656 83.507812 65.484375 83.613281 65.808594 83.820312 C 66.140625 84.019531 66.394531 84.3125 66.574219 84.695312 L 66.589844 84.695312 C 66.589844 84.570312 66.59375 84.367188 66.605469 84.085938 C 66.625 83.796875 66.644531 83.632812 66.667969 83.601562 L 67.667969 83.601562 C 67.636719 83.8125 67.621094 84.25 67.621094 84.914062 L 67.621094 89.757812 C 67.621094 91.539062 66.738281 92.429688 64.980469 92.429688 Z M 66.574219 86.773438 C 66.574219 86.265625 66.5 85.820312 66.355469 85.445312 C 66.21875 85.070312 66.019531 84.785156 65.761719 84.585938 C 65.511719 84.390625 65.222656 84.289062 64.902344 84.289062 C 64.359375 84.289062 63.964844 84.488281 63.714844 84.882812 C 63.472656 85.269531 63.355469 85.898438 63.355469 86.773438 C 63.355469 87.640625 63.46875 88.265625 63.699219 88.648438 C 63.925781 89.023438 64.324219 89.210938 64.886719 89.210938 C 65.21875 89.210938 65.511719 89.117188 65.761719 88.929688 C 66.019531 88.734375 66.21875 88.453125 66.355469 88.085938 C 66.5 87.710938 66.574219 87.273438 66.574219 86.773438 Z M 71.980469 92.429688 C 71.28125 92.429688 70.722656 92.292969 70.308594 92.023438 C 69.902344 91.75 69.640625 91.367188 69.527344 90.867188 L 70.589844 90.726562 C 70.660156 91.015625 70.816406 91.242188 71.058594 91.398438 C 71.296875 91.554688 71.609375 91.632812 71.996094 91.632812 C 73.046875 91.632812 73.574219 91.015625 73.574219 89.789062 L 73.574219 88.773438 C 73.363281 89.179688 73.089844 89.488281 72.746094 89.695312 C 72.402344 89.894531 71.996094 89.992188 71.527344 89.992188 C 70.746094 89.992188 70.171875 89.738281 69.808594 89.226562 C 69.441406 88.707031 69.261719 87.894531 69.261719 86.789062 C 69.261719 85.664062 69.457031 84.835938 69.855469 84.304688 C 70.25 83.773438 70.847656 83.507812 71.652344 83.507812 C 72.097656 83.507812 72.484375 83.613281 72.808594 83.820312 C 73.140625 84.019531 73.394531 84.3125 73.574219 84.695312 L 73.589844 84.695312 C 73.589844 84.570312 73.59375 84.367188 73.605469 84.085938 C 73.625 83.796875 73.644531 83.632812 73.667969 83.601562 L 74.667969 83.601562 C 74.636719 83.8125 74.621094 84.25 74.621094 84.914062 L 74.621094 89.757812 C 74.621094 91.539062 73.738281 92.429688 71.980469 92.429688 Z M 73.574219 86.773438 C 73.574219 86.265625 73.5 85.820312 73.355469 85.445312 C 73.21875 85.070312 73.019531 84.785156 72.761719 84.585938 C 72.511719 84.390625 72.222656 84.289062 71.902344 84.289062 C 71.359375 84.289062 70.964844 84.488281 70.714844 84.882812 C 70.472656 85.269531 70.355469 85.898438 70.355469 86.773438 C 70.355469 87.640625 70.46875 88.265625 70.699219 88.648438 C 70.925781 89.023438 71.324219 89.210938 71.886719 89.210938 C 72.21875 89.210938 72.511719 89.117188 72.761719 88.929688 C 73.019531 88.734375 73.21875 88.453125 73.355469 88.085938 C 73.5 87.710938 73.574219 87.273438 73.574219 86.773438 Z M 76.558594 89.945312 L 76.558594 83.601562 L 77.621094 83.601562 L 77.621094 89.945312 Z M 76.558594 82.257812 L 76.558594 81.242188 L 77.621094 81.242188 L 77.621094 82.257812 Z M 84.324219 88.195312 C 84.324219 88.789062 84.097656 89.253906 83.652344 89.585938 C 83.203125 89.910156 82.574219 90.070312 81.761719 90.070312 C 80.96875 90.070312 80.359375 89.941406 79.933594 89.679688 C 79.503906 89.421875 79.222656 89.015625 79.089844 88.460938 L 80.027344 88.273438 C 80.121094 88.617188 80.308594 88.867188 80.589844 89.023438 C 80.871094 89.179688 81.261719 89.257812 81.761719 89.257812 C 82.292969 89.257812 82.683594 89.179688 82.933594 89.023438 C 83.183594 88.859375 83.308594 88.609375 83.308594 88.273438 C 83.308594 88.023438 83.21875 87.820312 83.042969 87.664062 C 82.875 87.507812 82.597656 87.378906 82.214844 87.273438 L 81.464844 87.085938 C 80.847656 86.929688 80.410156 86.78125 80.152344 86.632812 C 79.902344 86.476562 79.703125 86.289062 79.558594 86.070312 C 79.421875 85.851562 79.355469 85.585938 79.355469 85.273438 C 79.355469 84.703125 79.558594 84.265625 79.964844 83.960938 C 80.378906 83.660156 80.980469 83.507812 81.761719 83.507812 C 82.46875 83.507812 83.027344 83.632812 83.433594 83.882812 C 83.847656 84.125 84.109375 84.515625 84.214844 85.054688 L 83.261719 85.179688 C 83.207031 84.898438 83.050781 84.6875 82.792969 84.539062 C 82.542969 84.382812 82.199219 84.304688 81.761719 84.304688 C 81.292969 84.304688 80.941406 84.378906 80.714844 84.523438 C 80.484375 84.671875 80.371094 84.890625 80.371094 85.179688 C 80.371094 85.359375 80.417969 85.503906 80.511719 85.617188 C 80.605469 85.734375 80.738281 85.832031 80.917969 85.914062 C 81.105469 86 81.496094 86.113281 82.089844 86.257812 C 82.652344 86.40625 83.050781 86.535156 83.292969 86.648438 C 83.542969 86.765625 83.734375 86.894531 83.871094 87.039062 C 84.015625 87.1875 84.125 87.359375 84.199219 87.554688 C 84.28125 87.742188 84.324219 87.957031 84.324219 88.195312 Z M 45.761719 79.082031 "/>
<path style=" stroke:none;fill-rule:nonzero;fill:rgb(40%,40%,40%);fill-opacity:1;" d="M 53.871094 197.511719 L 53.871094 189.261719 L 54.996094 189.261719 L 54.996094 197.511719 Z M 56.589844 197.511719 L 56.589844 192.652344 C 56.589844 192.207031 56.578125 191.710938 56.558594 191.167969 L 57.558594 191.167969 C 57.589844 191.886719 57.605469 192.320312 57.605469 192.464844 L 57.621094 192.464844 C 57.785156 191.925781 57.980469 191.554688 58.199219 191.355469 C 58.417969 191.160156 58.730469 191.058594 59.136719 191.058594 C 59.269531 191.058594 59.410156 191.074219 59.558594 191.105469 L 59.558594 192.074219 C 59.421875 192.042969 59.234375 192.027344 58.996094 192.027344 C 58.558594 192.027344 58.222656 192.214844 57.996094 192.589844 C 57.765625 192.964844 57.652344 193.503906 57.652344 194.199219 L 57.652344 197.511719 Z M 64.589844 197.511719 L 64.589844 193.496094 C 64.589844 193.082031 64.546875 192.757812 64.464844 192.527344 C 64.390625 192.289062 64.261719 192.121094 64.074219 192.027344 C 63.894531 191.925781 63.636719 191.871094 63.292969 191.871094 C 62.78125 191.871094 62.378906 192.050781 62.089844 192.402344 C 61.796875 192.746094 61.652344 193.226562 61.652344 193.839844 L 61.652344 197.511719 L 60.589844 197.511719 L 60.589844 192.527344 C 60.589844 191.789062 60.578125 191.335938 60.558594 191.167969 L 61.558594 191.167969 C 61.558594 191.191406 61.558594 191.246094 61.558594 191.339844 C 61.566406 191.425781 61.574219 191.523438 61.574219 191.636719 C 61.582031 191.742188 61.59375 191.949219 61.605469 192.261719 L 61.621094 192.261719 C 61.859375 191.824219 62.136719 191.519531 62.449219 191.339844 C 62.769531 191.152344 63.171875 191.058594 63.652344 191.058594 C 64.339844 191.058594 64.84375 191.230469 65.167969 191.574219 C 65.488281 191.917969 65.652344 192.492188 65.652344 193.292969 L 65.652344 197.511719 Z M 72.933594 194.308594 C 72.933594 196.527344 72.15625 197.636719 70.605469 197.636719 C 70.125 197.636719 69.722656 197.546875 69.402344 197.371094 C 69.078125 197.195312 68.816406 196.914062 68.621094 196.527344 C 68.621094 196.652344 68.609375 196.839844 68.589844 197.089844 C 68.578125 197.332031 68.566406 197.472656 68.558594 197.511719 L 67.542969 197.511719 C 67.5625 197.304688 67.574219 196.867188 67.574219 196.199219 L 67.574219 188.808594 L 68.621094 188.808594 L 68.621094 191.292969 C 68.621094 191.542969 68.613281 191.839844 68.605469 192.183594 L 68.621094 192.183594 C 68.816406 191.777344 69.078125 191.492188 69.402344 191.324219 C 69.722656 191.148438 70.125 191.058594 70.605469 191.058594 C 71.40625 191.058594 71.996094 191.332031 72.371094 191.871094 C 72.746094 192.402344 72.933594 193.214844 72.933594 194.308594 Z M 71.824219 194.339844 C 71.824219 193.457031 71.703125 192.824219 71.464844 192.449219 C 71.234375 192.066406 70.855469 191.871094 70.324219 191.871094 C 69.730469 191.871094 69.296875 192.074219 69.027344 192.480469 C 68.753906 192.886719 68.621094 193.535156 68.621094 194.417969 C 68.621094 195.242188 68.75 195.855469 69.011719 196.261719 C 69.28125 196.660156 69.71875 196.855469 70.324219 196.855469 C 70.855469 196.855469 71.234375 196.660156 71.464844 196.261719 C 71.703125 195.867188 71.824219 195.226562 71.824219 194.339844 Z M 74.589844 197.511719 L 74.589844 192.652344 C 74.589844 192.207031 74.578125 191.710938 74.558594 191.167969 L 75.558594 191.167969 C 75.589844 191.886719 75.605469 192.320312 75.605469 192.464844 L 75.621094 192.464844 C 75.785156 191.925781 75.980469 191.554688 76.199219 191.355469 C 76.417969 191.160156 76.730469 191.058594 77.136719 191.058594 C 77.269531 191.058594 77.410156 191.074219 77.558594 191.105469 L 77.558594 192.074219 C 77.421875 192.042969 77.234375 192.027344 76.996094 192.027344 C 76.558594 192.027344 76.222656 192.214844 75.996094 192.589844 C 75.765625 192.964844 75.652344 193.503906 75.652344 194.199219 L 75.652344 197.511719 Z M 79.605469 191.167969 L 79.605469 195.183594 C 79.605469 195.613281 79.644531 195.941406 79.730469 196.167969 C 79.8125 196.398438 79.941406 196.566406 80.121094 196.667969 C 80.296875 196.761719 80.558594 196.808594 80.902344 196.808594 C 81.410156 196.808594 81.8125 196.636719 82.105469 196.292969 C 82.394531 195.949219 82.542969 195.464844 82.542969 194.839844 L 82.542969 191.167969 L 83.605469 191.167969 L 83.605469 196.152344 C 83.605469 196.894531 83.613281 197.347656 83.636719 197.511719 L 82.636719 197.511719 C 82.636719 197.492188 82.628906 197.441406 82.621094 197.355469 C 82.621094 197.273438 82.613281 197.175781 82.605469 197.058594 C 82.605469 196.945312 82.597656 196.738281 82.589844 196.433594 L 82.574219 196.433594 C 82.332031 196.871094 82.050781 197.183594 81.730469 197.371094 C 81.417969 197.546875 81.027344 197.636719 80.558594 197.636719 C 79.859375 197.636719 79.347656 197.464844 79.027344 197.121094 C 78.703125 196.769531 78.542969 196.195312 78.542969 195.402344 L 78.542969 191.167969 Z M 52.761719 186.648438 "/>
<path style=" stroke:none;fill-rule:nonzero;fill:rgb(40%,40%,40%);fill-opacity:1;" d="M 28.339844 305.082031 L 27.183594 305.082031 L 23.808594 296.832031 L 24.996094 296.832031 L 27.277344 302.644531 L 27.777344 304.097656 L 28.261719 302.644531 L 30.542969 296.832031 L 31.714844 296.832031 Z M 32.386719 302.128906 C 32.386719 302.859375 32.53125 303.421875 32.824219 303.816406 C 33.125 304.214844 33.566406 304.410156 34.152344 304.410156 C 34.609375 304.410156 34.972656 304.324219 35.246094 304.144531 C 35.527344 303.957031 35.714844 303.722656 35.808594 303.441406 L 36.730469 303.691406 C 36.355469 304.703125 35.496094 305.207031 34.152344 305.207031 C 33.214844 305.207031 32.5 304.925781 32.011719 304.363281 C 31.519531 303.800781 31.277344 302.96875 31.277344 301.863281 C 31.277344 300.824219 31.519531 300.027344 32.011719 299.472656 C 32.5 298.910156 33.199219 298.628906 34.105469 298.628906 C 35.96875 298.628906 36.902344 299.75 36.902344 301.988281 L 36.902344 302.128906 Z M 35.808594 301.332031 C 35.753906 300.65625 35.589844 300.167969 35.308594 299.863281 C 35.027344 299.5625 34.621094 299.410156 34.089844 299.410156 C 33.578125 299.410156 33.171875 299.582031 32.871094 299.925781 C 32.578125 300.261719 32.417969 300.730469 32.386719 301.332031 Z M 40.980469 307.566406 C 40.28125 307.566406 39.722656 307.429688 39.308594 307.160156 C 38.902344 306.886719 38.640625 306.503906 38.527344 306.003906 L 39.589844 305.863281 C 39.660156 306.152344 39.816406 306.378906 40.058594 306.535156 C 40.296875 306.691406 40.609375 306.769531 40.996094 306.769531 C 42.046875 306.769531 42.574219 306.152344 42.574219 304.925781 L 42.574219 303.910156 C 42.363281 304.316406 42.089844 304.625 41.746094 304.832031 C 41.402344 305.03125 40.996094 305.128906 40.527344 305.128906 C 39.746094 305.128906 39.171875 304.875 38.808594 304.363281 C 38.441406 303.84375 38.261719 303.03125 38.261719 301.925781 C 38.261719 300.800781 38.457031 299.972656 38.855469 299.441406 C 39.25 298.910156 39.847656 298.644531 40.652344 298.644531 C 41.097656 298.644531 41.484375 298.75 41.808594 298.957031 C 42.140625 299.15625 42.394531 299.449219 42.574219 299.832031 L 42.589844 299.832031 C 42.589844 299.707031 42.59375 299.503906 42.605469 299.222656 C 42.625 298.933594 42.644531 298.769531 42.667969 298.738281 L 43.667969 298.738281 C 43.636719 298.949219 43.621094 299.386719 43.621094 300.050781 L 43.621094 304.894531 C 43.621094 306.675781 42.738281 307.566406 40.980469 307.566406 Z M 42.574219 301.910156 C 42.574219 301.402344 42.5 300.957031 42.355469 300.582031 C 42.21875 300.207031 42.019531 299.921875 41.761719 299.722656 C 41.511719 299.527344 41.222656 299.425781 40.902344 299.425781 C 40.359375 299.425781 39.964844 299.625 39.714844 300.019531 C 39.472656 300.40625 39.355469 301.035156 39.355469 301.910156 C 39.355469 302.777344 39.46875 303.402344 39.699219 303.785156 C 39.925781 304.160156 40.324219 304.347656 40.886719 304.347656 C 41.21875 304.347656 41.511719 304.253906 41.761719 304.066406 C 42.019531 303.871094 42.21875 303.589844 42.355469 303.222656 C 42.5 302.847656 42.574219 302.410156 42.574219 301.910156 Z M 46.386719 302.128906 C 46.386719 302.859375 46.53125 303.421875 46.824219 303.816406 C 47.125 304.214844 47.566406 304.410156 48.152344 304.410156 C 48.609375 304.410156 48.972656 304.324219 49.246094 304.144531 C 49.527344 303.957031 49.714844 303.722656 49.808594 303.441406 L 50.730469 303.691406 C 50.355469 304.703125 49.496094 305.207031 48.152344 305.207031 C 47.214844 305.207031 46.5 304.925781 46.011719 304.363281 C 45.519531 303.800781 45.277344 302.96875 45.277344 301.863281 C 45.277344 300.824219 45.519531 300.027344 46.011719 299.472656 C 46.5 298.910156 47.199219 298.628906 48.105469 298.628906 C 49.96875 298.628906 50.902344 299.75 50.902344 301.988281 L 50.902344 302.128906 Z M 49.808594 301.332031 C 49.753906 300.65625 49.589844 300.167969 49.308594 299.863281 C 49.027344 299.5625 48.621094 299.410156 48.089844 299.410156 C 47.578125 299.410156 47.171875 299.582031 46.871094 299.925781 C 46.578125 300.261719 46.417969 300.730469 46.386719 301.332031 Z M 55.011719 305.035156 C 54.65625 305.128906 54.300781 305.175781 53.949219 305.175781 C 53.105469 305.175781 52.683594 304.699219 52.683594 303.738281 L 52.683594 299.503906 L 51.949219 299.503906 L 51.949219 298.738281 L 52.714844 298.738281 L 53.027344 297.316406 L 53.730469 297.316406 L 53.730469 298.738281 L 54.902344 298.738281 L 54.902344 299.503906 L 53.730469 299.503906 L 53.730469 303.503906 C 53.730469 303.816406 53.777344 304.035156 53.871094 304.160156 C 53.972656 304.277344 54.152344 304.332031 54.402344 304.332031 C 54.535156 304.332031 54.738281 304.308594 55.011719 304.253906 Z M 57.183594 305.207031 C 56.546875 305.207031 56.066406 305.042969 55.746094 304.707031 C 55.433594 304.363281 55.277344 303.902344 55.277344 303.316406 C 55.277344 302.660156 55.488281 302.15625 55.917969 301.800781 C 56.355469 301.449219 57.050781 301.261719 58.011719 301.238281 L 59.433594 301.207031 L 59.433594 300.863281 C 59.433594 300.355469 59.324219 299.988281 59.105469 299.769531 C 58.886719 299.542969 58.542969 299.425781 58.074219 299.425781 C 57.605469 299.425781 57.261719 299.511719 57.042969 299.675781 C 56.824219 299.832031 56.691406 300.089844 56.652344 300.441406 L 55.558594 300.332031 C 55.734375 299.199219 56.578125 298.628906 58.089844 298.628906 C 58.890625 298.628906 59.488281 298.8125 59.886719 299.175781 C 60.292969 299.542969 60.496094 300.066406 60.496094 300.753906 L 60.496094 303.488281 C 60.496094 303.800781 60.535156 304.035156 60.621094 304.191406 C 60.703125 304.347656 60.859375 304.425781 61.089844 304.425781 C 61.191406 304.425781 61.308594 304.417969 61.433594 304.394531 L 61.433594 305.050781 C 61.171875 305.113281 60.902344 305.144531 60.621094 305.144531 C 60.234375 305.144531 59.949219 305.042969 59.761719 304.832031 C 59.582031 304.625 59.484375 304.300781 59.464844 303.863281 L 59.433594 303.863281 C 59.160156 304.355469 58.84375 304.703125 58.480469 304.910156 C 58.125 305.105469 57.691406 305.207031 57.183594 305.207031 Z M 57.433594 304.410156 C 57.816406 304.410156 58.160156 304.324219 58.464844 304.144531 C 58.765625 303.96875 59 303.730469 59.167969 303.425781 C 59.34375 303.113281 59.433594 302.796875 59.433594 302.472656 L 59.433594 301.957031 L 58.277344 301.972656 C 57.777344 301.984375 57.394531 302.035156 57.136719 302.128906 C 56.886719 302.222656 56.691406 302.371094 56.558594 302.566406 C 56.421875 302.753906 56.355469 303.011719 56.355469 303.332031 C 56.355469 303.675781 56.449219 303.941406 56.636719 304.128906 C 56.824219 304.316406 57.089844 304.410156 57.433594 304.410156 Z M 67.933594 301.878906 C 67.933594 304.097656 67.15625 305.207031 65.605469 305.207031 C 65.125 305.207031 64.722656 305.117188 64.402344 304.941406 C 64.078125 304.765625 63.816406 304.484375 63.621094 304.097656 C 63.621094 304.222656 63.609375 304.410156 63.589844 304.660156 C 63.578125 304.902344 63.566406 305.042969 63.558594 305.082031 L 62.542969 305.082031 C 62.5625 304.875 62.574219 304.4375 62.574219 303.769531 L 62.574219 296.378906 L 63.621094 296.378906 L 63.621094 298.863281 C 63.621094 299.113281 63.613281 299.410156 63.605469 299.753906 L 63.621094 299.753906 C 63.816406 299.347656 64.078125 299.0625 64.402344 298.894531 C 64.722656 298.71875 65.125 298.628906 65.605469 298.628906 C 66.40625 298.628906 66.996094 298.902344 67.371094 299.441406 C 67.746094 299.972656 67.933594 300.785156 67.933594 301.878906 Z M 66.824219 301.910156 C 66.824219 301.027344 66.703125 300.394531 66.464844 300.019531 C 66.234375 299.636719 65.855469 299.441406 65.324219 299.441406 C 64.730469 299.441406 64.296875 299.644531 64.027344 300.050781 C 63.753906 300.457031 63.621094 301.105469 63.621094 301.988281 C 63.621094 302.8125 63.75 303.425781 64.011719 303.832031 C 64.28125 304.230469 64.71875 304.425781 65.324219 304.425781 C 65.855469 304.425781 66.234375 304.230469 66.464844 303.832031 C 66.703125 303.4375 66.824219 302.796875 66.824219 301.910156 Z M 69.574219 305.082031 L 69.574219 296.378906 L 70.621094 296.378906 L 70.621094 305.082031 Z M 73.386719 302.128906 C 73.386719 302.859375 73.53125 303.421875 73.824219 303.816406 C 74.125 304.214844 74.566406 304.410156 75.152344 304.410156 C 75.609375 304.410156 75.972656 304.324219 76.246094 304.144531 C 76.527344 303.957031 76.714844 303.722656 76.808594 303.441406 L 77.730469 303.691406 C 77.355469 304.703125 76.496094 305.207031 75.152344 305.207031 C 74.214844 305.207031 73.5 304.925781 73.011719 304.363281 C 72.519531 303.800781 72.277344 302.96875 72.277344 301.863281 C 72.277344 300.824219 72.519531 300.027344 73.011719 299.472656 C 73.5 298.910156 74.199219 298.628906 75.105469 298.628906 C 76.96875 298.628906 77.902344 299.75 77.902344 301.988281 L 77.902344 302.128906 Z M 76.808594 301.332031 C 76.753906 300.65625 76.589844 300.167969 76.308594 299.863281 C 76.027344 299.5625 75.621094 299.410156 75.089844 299.410156 C 74.578125 299.410156 74.171875 299.582031 73.871094 299.925781 C 73.578125 300.261719 73.417969 300.730469 73.386719 301.332031 Z M 84.324219 303.332031 C 84.324219 303.925781 84.097656 304.390625 83.652344 304.722656 C 83.203125 305.046875 82.574219 305.207031 81.761719 305.207031 C 80.96875 305.207031 80.359375 305.078125 79.933594 304.816406 C 79.503906 304.558594 79.222656 304.152344 79.089844 303.597656 L 80.027344 303.410156 C 80.121094 303.753906 80.308594 304.003906 80.589844 304.160156 C 80.871094 304.316406 81.261719 304.394531 81.761719 304.394531 C 82.292969 304.394531 82.683594 304.316406 82.933594 304.160156 C 83.183594 303.996094 83.308594 303.746094 83.308594 303.410156 C 83.308594 303.160156 83.21875 302.957031 83.042969 302.800781 C 82.875 302.644531 82.597656 302.515625 82.214844 302.410156 L 81.464844 302.222656 C 80.847656 302.066406 80.410156 301.917969 80.152344 301.769531 C 79.902344 301.613281 79.703125 301.425781 79.558594 301.207031 C 79.421875 300.988281 79.355469 300.722656 79.355469 300.410156 C 79.355469 299.839844 79.558594 299.402344 79.964844 299.097656 C 80.378906 298.796875 80.980469 298.644531 81.761719 298.644531 C 82.46875 298.644531 83.027344 298.769531 83.433594 299.019531 C 83.847656 299.261719 84.109375 299.652344 84.214844 300.191406 L 83.261719 300.316406 C 83.207031 300.035156 83.050781 299.824219 82.792969 299.675781 C 82.542969 299.519531 82.199219 299.441406 81.761719 299.441406 C 81.292969 299.441406 80.941406 299.515625 80.714844 299.660156 C 80.484375 299.808594 80.371094 300.027344 80.371094 300.316406 C 80.371094 300.496094 80.417969 300.640625 80.511719 300.753906 C 80.605469 300.871094 80.738281 300.96875 80.917969 301.050781 C 81.105469 301.136719 81.496094 301.25 82.089844 301.394531 C 82.652344 301.542969 83.050781 301.671875 83.292969 301.785156 C 83.542969 301.902344 83.734375 302.03125 83.871094 302.175781 C 84.015625 302.324219 84.125 302.496094 84.199219 302.691406 C 84.28125 302.878906 84.324219 303.09375 84.324219 303.332031 Z M 23.761719 294.21875 "/>
<path style=" stroke:none;fill-rule:nonzero;fill:rgb(40%,40%,40%);fill-opacity:1;" d="M 13.136719 410.320312 C 13.136719 411.0625 12.863281 411.632812 12.324219 412.039062 C 11.792969 412.445312 11.050781 412.648438 10.105469 412.648438 L 6.746094 412.648438 L 6.746094 404.398438 L 9.746094 404.398438 C 11.683594 404.398438 12.652344 405.066406 12.652344 406.398438 C 12.652344 406.890625 12.515625 407.300781 12.246094 407.632812 C 11.972656 407.957031 11.589844 408.175781 11.089844 408.289062 C 11.746094 408.375 12.25 408.597656 12.605469 408.960938 C 12.957031 409.316406 13.136719 409.769531 13.136719 410.320312 Z M 11.996094 410.226562 C 11.996094 409.257812 11.3125 408.773438 9.949219 408.773438 L 7.871094 408.773438 L 7.871094 411.757812 L 10.042969 411.757812 C 10.71875 411.757812 11.214844 411.632812 11.527344 411.382812 C 11.839844 411.125 11.996094 410.738281 11.996094 410.226562 Z M 11.527344 406.523438 C 11.527344 406.085938 11.375 405.773438 11.074219 405.585938 C 10.769531 405.390625 10.328125 405.289062 9.746094 405.289062 L 7.871094 405.289062 L 7.871094 407.898438 L 9.746094 407.898438 C 10.339844 407.898438 10.78125 407.789062 11.074219 407.570312 C 11.375 407.34375 11.527344 406.992188 11.527344 406.523438 Z M 14.574219 412.648438 L 14.574219 403.945312 L 15.621094 403.945312 L 15.621094 412.648438 Z M 19.183594 412.773438 C 18.546875 412.773438 18.066406 412.609375 17.746094 412.273438 C 17.433594 411.929688 17.277344 411.46875 17.277344 410.882812 C 17.277344 410.226562 17.488281 409.722656 17.917969 409.367188 C 18.355469 409.015625 19.050781 408.828125 20.011719 408.804688 L 21.433594 408.773438 L 21.433594 408.429688 C 21.433594 407.921875 21.324219 407.554688 21.105469 407.335938 C 20.886719 407.109375 20.542969 406.992188 20.074219 406.992188 C 19.605469 406.992188 19.261719 407.078125 19.042969 407.242188 C 18.824219 407.398438 18.691406 407.65625 18.652344 408.007812 L 17.558594 407.898438 C 17.734375 406.765625 18.578125 406.195312 20.089844 406.195312 C 20.890625 406.195312 21.488281 406.378906 21.886719 406.742188 C 22.292969 407.109375 22.496094 407.632812 22.496094 408.320312 L 22.496094 411.054688 C 22.496094 411.367188 22.535156 411.601562 22.621094 411.757812 C 22.703125 411.914062 22.859375 411.992188 23.089844 411.992188 C 23.191406 411.992188 23.308594 411.984375 23.433594 411.960938 L 23.433594 412.617188 C 23.171875 412.679688 22.902344 412.710938 22.621094 412.710938 C 22.234375 412.710938 21.949219 412.609375 21.761719 412.398438 C 21.582031 412.191406 21.484375 411.867188 21.464844 411.429688 L 21.433594 411.429688 C 21.160156 411.921875 20.84375 412.269531 20.480469 412.476562 C 20.125 412.671875 19.691406 412.773438 19.183594 412.773438 Z M 19.433594 411.976562 C 19.816406 411.976562 20.160156 411.890625 20.464844 411.710938 C 20.765625 411.535156 21 411.296875 21.167969 410.992188 C 21.34375 410.679688 21.433594 410.363281 21.433594 410.039062 L 21.433594 409.523438 L 20.277344 409.539062 C 19.777344 409.550781 19.394531 409.601562 19.136719 409.695312 C 18.886719 409.789062 18.691406 409.9375 18.558594 410.132812 C 18.421875 410.320312 18.355469 410.578125 18.355469 410.898438 C 18.355469 411.242188 18.449219 411.507812 18.636719 411.695312 C 18.824219 411.882812 19.089844 411.976562 19.433594 411.976562 Z M 25.371094 409.445312 C 25.371094 410.289062 25.5 410.914062 25.761719 411.320312 C 26.03125 411.726562 26.4375 411.929688 26.980469 411.929688 C 27.355469 411.929688 27.667969 411.832031 27.917969 411.632812 C 28.167969 411.425781 28.324219 411.113281 28.386719 410.695312 L 29.449219 410.757812 C 29.363281 411.375 29.105469 411.863281 28.667969 412.226562 C 28.230469 412.59375 27.671875 412.773438 26.996094 412.773438 C 26.109375 412.773438 25.433594 412.492188 24.964844 411.929688 C 24.503906 411.367188 24.277344 410.550781 24.277344 409.476562 C 24.277344 408.40625 24.511719 407.59375 24.980469 407.039062 C 25.449219 406.476562 26.121094 406.195312 26.996094 406.195312 C 27.640625 406.195312 28.175781 406.363281 28.605469 406.695312 C 29.03125 407.03125 29.300781 407.492188 29.417969 408.085938 L 28.324219 408.164062 C 28.269531 407.8125 28.128906 407.535156 27.902344 407.335938 C 27.683594 407.128906 27.371094 407.023438 26.964844 407.023438 C 26.402344 407.023438 25.996094 407.210938 25.746094 407.585938 C 25.496094 407.953125 25.371094 408.570312 25.371094 409.445312 Z M 34.542969 412.648438 L 32.402344 409.757812 L 31.621094 410.398438 L 31.621094 412.648438 L 30.574219 412.648438 L 30.574219 403.945312 L 31.621094 403.945312 L 31.621094 409.382812 L 34.402344 406.304688 L 35.652344 406.304688 L 33.074219 409.039062 L 35.777344 412.648438 Z M 46.136719 406.882812 C 46.136719 407.664062 45.878906 408.285156 45.371094 408.742188 C 44.859375 409.203125 44.167969 409.429688 43.292969 409.429688 L 40.871094 409.429688 L 40.871094 412.648438 L 39.746094 412.648438 L 39.746094 404.398438 L 43.214844 404.398438 C 44.140625 404.398438 44.859375 404.617188 45.371094 405.054688 C 45.878906 405.484375 46.136719 406.09375 46.136719 406.882812 Z M 45.011719 406.882812 C 45.011719 405.820312 44.371094 405.289062 43.089844 405.289062 L 40.871094 405.289062 L 40.871094 408.539062 L 43.136719 408.539062 C 44.386719 408.539062 45.011719 407.988281 45.011719 406.882812 Z M 48.605469 406.304688 L 48.605469 410.320312 C 48.605469 410.75 48.644531 411.078125 48.730469 411.304688 C 48.8125 411.535156 48.941406 411.703125 49.121094 411.804688 C 49.296875 411.898438 49.558594 411.945312 49.902344 411.945312 C 50.410156 411.945312 50.8125 411.773438 51.105469 411.429688 C 51.394531 411.085938 51.542969 410.601562 51.542969 409.976562 L 51.542969 406.304688 L 52.605469 406.304688 L 52.605469 411.289062 C 52.605469 412.03125 52.613281 412.484375 52.636719 412.648438 L 51.636719 412.648438 C 51.636719 412.628906 51.628906 412.578125 51.621094 412.492188 C 51.621094 412.410156 51.613281 412.3125 51.605469 412.195312 C 51.605469 412.082031 51.597656 411.875 51.589844 411.570312 L 51.574219 411.570312 C 51.332031 412.007812 51.050781 412.320312 50.730469 412.507812 C 50.417969 412.683594 50.027344 412.773438 49.558594 412.773438 C 48.859375 412.773438 48.347656 412.601562 48.027344 412.257812 C 47.703125 411.90625 47.542969 411.332031 47.542969 410.539062 L 47.542969 406.304688 Z M 58.574219 411.632812 C 58.375 412.039062 58.113281 412.332031 57.792969 412.507812 C 57.46875 412.683594 57.074219 412.773438 56.605469 412.773438 C 55.800781 412.773438 55.207031 412.503906 54.824219 411.960938 C 54.449219 411.421875 54.261719 410.601562 54.261719 409.507812 C 54.261719 407.300781 55.042969 406.195312 56.605469 406.195312 C 57.082031 406.195312 57.480469 406.285156 57.792969 406.460938 C 58.113281 406.628906 58.375 406.90625 58.574219 407.289062 L 58.589844 407.289062 L 58.574219 406.585938 L 58.574219 403.945312 L 59.621094 403.945312 L 59.621094 411.335938 C 59.621094 412.003906 59.636719 412.441406 59.667969 412.648438 L 58.652344 412.648438 C 58.640625 412.585938 58.625 412.441406 58.605469 412.210938 C 58.59375 411.984375 58.589844 411.789062 58.589844 411.632812 Z M 55.371094 409.476562 C 55.371094 410.363281 55.484375 411 55.714844 411.382812 C 55.953125 411.757812 56.339844 411.945312 56.871094 411.945312 C 57.464844 411.945312 57.894531 411.742188 58.167969 411.335938 C 58.4375 410.921875 58.574219 410.273438 58.574219 409.398438 C 58.574219 408.566406 58.4375 407.957031 58.167969 407.570312 C 57.894531 407.175781 57.46875 406.976562 56.886719 406.976562 C 56.355469 406.976562 55.96875 407.175781 55.730469 407.570312 C 55.488281 407.957031 55.371094 408.59375 55.371094 409.476562 Z M 65.574219 411.632812 C 65.375 412.039062 65.113281 412.332031 64.792969 412.507812 C 64.46875 412.683594 64.074219 412.773438 63.605469 412.773438 C 62.800781 412.773438 62.207031 412.503906 61.824219 411.960938 C 61.449219 411.421875 61.261719 410.601562 61.261719 409.507812 C 61.261719 407.300781 62.042969 406.195312 63.605469 406.195312 C 64.082031 406.195312 64.480469 406.285156 64.792969 406.460938 C 65.113281 406.628906 65.375 406.90625 65.574219 407.289062 L 65.589844 407.289062 L 65.574219 406.585938 L 65.574219 403.945312 L 66.621094 403.945312 L 66.621094 411.335938 C 66.621094 412.003906 66.636719 412.441406 66.667969 412.648438 L 65.652344 412.648438 C 65.640625 412.585938 65.625 412.441406 65.605469 412.210938 C 65.59375 411.984375 65.589844 411.789062 65.589844 411.632812 Z M 62.371094 409.476562 C 62.371094 410.363281 62.484375 411 62.714844 411.382812 C 62.953125 411.757812 63.339844 411.945312 63.871094 411.945312 C 64.464844 411.945312 64.894531 411.742188 65.167969 411.335938 C 65.4375 410.921875 65.574219 410.273438 65.574219 409.398438 C 65.574219 408.566406 65.4375 407.957031 65.167969 407.570312 C 64.894531 407.175781 64.46875 406.976562 63.886719 406.976562 C 63.355469 406.976562 62.96875 407.175781 62.730469 407.570312 C 62.488281 407.957031 62.371094 408.59375 62.371094 409.476562 Z M 68.558594 412.648438 L 68.558594 406.304688 L 69.621094 406.304688 L 69.621094 412.648438 Z M 68.558594 404.960938 L 68.558594 403.945312 L 69.621094 403.945312 L 69.621094 404.960938 Z M 75.589844 412.648438 L 75.589844 408.632812 C 75.589844 408.21875 75.546875 407.894531 75.464844 407.664062 C 75.390625 407.425781 75.261719 407.257812 75.074219 407.164062 C 74.894531 407.0625 74.636719 407.007812 74.292969 407.007812 C 73.78125 407.007812 73.378906 407.1875 73.089844 407.539062 C 72.796875 407.882812 72.652344 408.363281 72.652344 408.976562 L 72.652344 412.648438 L 71.589844 412.648438 L 71.589844 407.664062 C 71.589844 406.925781 71.578125 406.472656 71.558594 406.304688 L 72.558594 406.304688 C 72.558594 406.328125 72.558594 406.382812 72.558594 406.476562 C 72.566406 406.5625 72.574219 406.660156 72.574219 406.773438 C 72.582031 406.878906 72.59375 407.085938 72.605469 407.398438 L 72.621094 407.398438 C 72.859375 406.960938 73.136719 406.65625 73.449219 406.476562 C 73.769531 406.289062 74.171875 406.195312 74.652344 406.195312 C 75.339844 406.195312 75.84375 406.367188 76.167969 406.710938 C 76.488281 407.054688 76.652344 407.628906 76.652344 408.429688 L 76.652344 412.648438 Z M 80.980469 415.132812 C 80.28125 415.132812 79.722656 414.996094 79.308594 414.726562 C 78.902344 414.453125 78.640625 414.070312 78.527344 413.570312 L 79.589844 413.429688 C 79.660156 413.71875 79.816406 413.945312 80.058594 414.101562 C 80.296875 414.257812 80.609375 414.335938 80.996094 414.335938 C 82.046875 414.335938 82.574219 413.71875 82.574219 412.492188 L 82.574219 411.476562 C 82.363281 411.882812 82.089844 412.191406 81.746094 412.398438 C 81.402344 412.597656 80.996094 412.695312 80.527344 412.695312 C 79.746094 412.695312 79.171875 412.441406 78.808594 411.929688 C 78.441406 411.410156 78.261719 410.597656 78.261719 409.492188 C 78.261719 408.367188 78.457031 407.539062 78.855469 407.007812 C 79.25 406.476562 79.847656 406.210938 80.652344 406.210938 C 81.097656 406.210938 81.484375 406.316406 81.808594 406.523438 C 82.140625 406.722656 82.394531 407.015625 82.574219 407.398438 L 82.589844 407.398438 C 82.589844 407.273438 82.59375 407.070312 82.605469 406.789062 C 82.625 406.5 82.644531 406.335938 82.667969 406.304688 L 83.667969 406.304688 C 83.636719 406.515625 83.621094 406.953125 83.621094 407.617188 L 83.621094 412.460938 C 83.621094 414.242188 82.738281 415.132812 80.980469 415.132812 Z M 82.574219 409.476562 C 82.574219 408.96875 82.5 408.523438 82.355469 408.148438 C 82.21875 407.773438 82.019531 407.488281 81.761719 407.289062 C 81.511719 407.09375 81.222656 406.992188 80.902344 406.992188 C 80.359375 406.992188 79.964844 407.191406 79.714844 407.585938 C 79.472656 407.972656 79.355469 408.601562 79.355469 409.476562 C 79.355469 410.34375 79.46875 410.96875 79.699219 411.351562 C 79.925781 411.726562 80.324219 411.914062 80.886719 411.914062 C 81.21875 411.914062 81.511719 411.820312 81.761719 411.632812 C 82.019531 411.4375 82.21875 411.15625 82.355469 410.789062 C 82.5 410.414062 82.574219 409.976562 82.574219 409.476562 Z M 5.761719 401.785156 "/>
<path style=" stroke:none;fill-rule:nonzero;fill:rgb(40%,40%,40%);fill-opacity:1;" d="M 63.871094 512.871094 L 63.871094 515.949219 L 68.464844 515.949219 L 68.464844 516.871094 L 63.871094 516.871094 L 63.871094 520.214844 L 62.746094 520.214844 L 62.746094 511.964844 L 68.605469 511.964844 L 68.605469 512.871094 Z M 69.558594 520.214844 L 69.558594 513.871094 L 70.621094 513.871094 L 70.621094 520.214844 Z M 69.558594 512.527344 L 69.558594 511.511719 L 70.621094 511.511719 L 70.621094 512.527344 Z M 77.324219 518.464844 C 77.324219 519.058594 77.097656 519.523438 76.652344 519.855469 C 76.203125 520.179688 75.574219 520.339844 74.761719 520.339844 C 73.96875 520.339844 73.359375 520.210938 72.933594 519.949219 C 72.503906 519.691406 72.222656 519.285156 72.089844 518.730469 L 73.027344 518.542969 C 73.121094 518.886719 73.308594 519.136719 73.589844 519.292969 C 73.871094 519.449219 74.261719 519.527344 74.761719 519.527344 C 75.292969 519.527344 75.683594 519.449219 75.933594 519.292969 C 76.183594 519.128906 76.308594 518.878906 76.308594 518.542969 C 76.308594 518.292969 76.21875 518.089844 76.042969 517.933594 C 75.875 517.777344 75.597656 517.648438 75.214844 517.542969 L 74.464844 517.355469 C 73.847656 517.199219 73.410156 517.050781 73.152344 516.902344 C 72.902344 516.746094 72.703125 516.558594 72.558594 516.339844 C 72.421875 516.121094 72.355469 515.855469 72.355469 515.542969 C 72.355469 514.972656 72.558594 514.535156 72.964844 514.230469 C 73.378906 513.929688 73.980469 513.777344 74.761719 513.777344 C 75.46875 513.777344 76.027344 513.902344 76.433594 514.152344 C 76.847656 514.394531 77.109375 514.785156 77.214844 515.324219 L 76.261719 515.449219 C 76.207031 515.167969 76.050781 514.957031 75.792969 514.808594 C 75.542969 514.652344 75.199219 514.574219 74.761719 514.574219 C 74.292969 514.574219 73.941406 514.648438 73.714844 514.792969 C 73.484375 514.941406 73.371094 515.160156 73.371094 515.449219 C 73.371094 515.628906 73.417969 515.773438 73.511719 515.886719 C 73.605469 516.003906 73.738281 516.101562 73.917969 516.183594 C 74.105469 516.269531 74.496094 516.382812 75.089844 516.527344 C 75.652344 516.675781 76.050781 516.804688 76.292969 516.917969 C 76.542969 517.035156 76.734375 517.164062 76.871094 517.308594 C 77.015625 517.457031 77.125 517.628906 77.199219 517.824219 C 77.28125 518.011719 77.324219 518.226562 77.324219 518.464844 Z M 79.621094 514.964844 C 79.847656 514.550781 80.121094 514.246094 80.433594 514.058594 C 80.753906 513.863281 81.160156 513.761719 81.652344 513.761719 C 82.339844 513.761719 82.84375 513.933594 83.167969 514.277344 C 83.488281 514.613281 83.652344 515.183594 83.652344 515.996094 L 83.652344 520.214844 L 82.589844 520.214844 L 82.589844 516.199219 C 82.589844 515.753906 82.546875 515.417969 82.464844 515.199219 C 82.390625 514.980469 82.261719 514.824219 82.074219 514.730469 C 81.886719 514.628906 81.625 514.574219 81.292969 514.574219 C 80.792969 514.574219 80.390625 514.746094 80.089844 515.089844 C 79.796875 515.433594 79.652344 515.898438 79.652344 516.480469 L 79.652344 520.214844 L 78.589844 520.214844 L 78.589844 511.511719 L 79.652344 511.511719 L 79.652344 513.777344 C 79.652344 514.019531 79.640625 514.269531 79.621094 514.527344 C 79.609375 514.777344 79.605469 514.925781 79.605469 514.964844 Z M 61.761719 509.351562 "/>
<path style=" stroke:none;fill-rule:nonzero;fill:rgb(21.176471%,63.529412%,92.156863%);fill-opacity:0.498039;" d="M 428.476562 58.890625 L 484.097656 58.890625 L 484.097656 112.675781 L 428.476562 112.675781 Z M 428.476562 58.890625 "/>
<g clip-path="url(#H6VYxvEZv8__clip1)" clip-rule="nonzero">
<path style=" stroke:none;fill-rule:evenodd;fill:rgb(21.176471%,63.529412%,92.156863%);fill-opacity:1;" d="M 428.476562 58.890625 L 484.097656 58.890625 L 484.097656 112.675781 L 428.476562 112.675781 Z M 428.476562 59.890625 L 483.097656 59.890625 L 483.097656 111.675781 L 428.476562 111.675781 Z M 428.476562 59.890625 "/>
</g>
<path style=" stroke:none;fill-rule:nonzero;fill:rgb(21.176471%,63.529412%,92.156863%);fill-opacity:0.498039;" d="M 623.140625 166.460938 L 706.570312 166.460938 L 706.570312 220.246094 L 623.140625 220.246094 Z M 623.140625 166.460938 "/>
<g clip-path="url(#H6VYxvEZv8__clip2)" clip-rule="nonzero">
<path style=" stroke:none;fill-rule:evenodd;fill:rgb(21.176471%,63.529412%,92.156863%);fill-opacity:1;" d="M 623.140625 166.460938 L 706.570312 166.460938 L 706.570312 220.246094 L 623.140625 220.246094 Z M 623.140625 167.460938 L 705.570312 167.460938 L 705.570312 219.246094 L 623.140625 219.246094 Z M 623.140625 167.460938 "/>
</g>
<path style=" stroke:none;fill-rule:nonzero;fill:rgb(21.176471%,63.529412%,92.156863%);fill-opacity:0.498039;" d="M 178.1875 274.027344 L 734.378906 274.027344 L 734.378906 327.8125 L 178.1875 327.8125 Z M 178.1875 274.027344 "/>
<g clip-path="url(#H6VYxvEZv8__clip3)" clip-rule="nonzero">
<path style=" stroke:none;fill-rule:evenodd;fill:rgb(21.176471%,63.529412%,92.156863%);fill-opacity:1;" d="M 178.1875 274.027344 L 734.378906 274.027344 L 734.378906 327.8125 L 178.1875 327.8125 Z M 178.1875 275.027344 L 733.378906 275.027344 L 733.378906 326.8125 L 178.1875 326.8125 Z M 178.1875 275.027344 "/>
</g>
<path style=" stroke:none;fill-rule:nonzero;fill:rgb(21.176471%,63.529412%,92.156863%);fill-opacity:0.498039;" d="M 233.808594 381.597656 L 650.953125 381.597656 L 650.953125 435.382812 L 233.808594 435.382812 Z M 233.808594 381.597656 "/>
<g clip-path="url(#H6VYxvEZv8__clip4)" clip-rule="nonzero">
<path style=" stroke:none;fill-rule:evenodd;fill:rgb(21.176471%,63.529412%,92.156863%);fill-opacity:1;" d="M 233.808594 381.597656 L 650.953125 381.597656 L 650.953125 435.382812 L 233.808594 435.382812 Z M 233.808594 382.597656 L 649.953125 382.597656 L 649.953125 434.382812 L 233.808594 434.382812 Z M 233.808594 382.597656 "/>
</g>
<path style=" stroke:none;fill-rule:nonzero;fill:rgb(21.176471%,63.529412%,92.156863%);fill-opacity:0.498039;" d="M 650.953125 489.164062 L 706.574219 489.164062 L 706.574219 542.949219 L 650.953125 542.949219 Z M 650.953125 489.164062 "/>
<g clip-path="url(#H6VYxvEZv8__clip5)" clip-rule="nonzero">
<path style=" stroke:none;fill-rule:evenodd;fill:rgb(21.176471%,63.529412%,92.156863%);fill-opacity:1;" d="M 650.953125 489.164062 L 706.574219 489.164062 L 706.574219 542.949219 L 650.953125 542.949219 Z M 650.953125 490.164062 L 705.574219 490.164062 L 705.574219 541.949219 L 650.953125 541.949219 Z M 650.953125 490.164062 "/>
</g>
<g clip-path="url(#H6VYxvEZv8__clip6)" clip-rule="nonzero">
<path style=" stroke:none;fill-rule:nonzero;fill:rgb(100%,38.823529%,51.764706%);fill-opacity:0.498039;" d="M 94.761719 58.890625 L 428.476562 58.890625 L 428.476562 112.675781 L 94.761719 112.675781 Z M 94.761719 58.890625 "/>
</g>
<g clip-path="url(#H6VYxvEZv8__clip7)" clip-rule="nonzero">
<path style=" stroke:none;fill-rule:evenodd;fill:rgb(100%,38.823529%,51.764706%);fill-opacity:1;" d="M 94.761719 58.890625 L 428.476562 58.890625 L 428.476562 112.675781 L 94.761719 112.675781 Z M 94.761719 59.890625 L 427.476562 59.890625 L 427.476562 111.675781 L 94.761719 111.675781 Z M 94.761719 59.890625 "/>
</g>
<g clip-path="url(#H6VYxvEZv8__clip8)" clip-rule="nonzero">
<path style=" stroke:none;fill-rule:nonzero;fill:rgb(100%,38.823529%,51.764706%);fill-opacity:0.498039;" d="M 94.761719 166.460938 L 623.144531 166.460938 L 623.144531 220.246094 L 94.761719 220.246094 Z M 94.761719 166.460938 "/>
</g>
<g clip-path="url(#H6VYxvEZv8__clip9)" clip-rule="nonzero">
<path style=" stroke:none;fill-rule:evenodd;fill:rgb(100%,38.823529%,51.764706%);fill-opacity:1;" d="M 94.761719 166.460938 L 623.144531 166.460938 L 623.144531 220.246094 L 94.761719 220.246094 Z M 94.761719 167.460938 L 622.144531 167.460938 L 622.144531 219.246094 L 94.761719 219.246094 Z M 94.761719 167.460938 "/>
</g>
<g clip-path="url(#H6VYxvEZv8__clip10)" clip-rule="nonzero">
<path style=" stroke:none;fill-rule:nonzero;fill:rgb(100%,38.823529%,51.764706%);fill-opacity:0.498039;" d="M 94.761719 274.027344 L 178.191406 274.027344 L 178.191406 327.8125 L 94.761719 327.8125 Z M 94.761719 274.027344 "/>
</g>
<g clip-path="url(#H6VYxvEZv8__clip11)" clip-rule="nonzero">
<path style=" stroke:none;fill-rule:evenodd;fill:rgb(100%,38.823529%,51.764706%);fill-opacity:1;" d="M 94.761719 274.027344 L 178.191406 274.027344 L 178.191406 327.8125 L 94.761719 327.8125 Z M 94.761719 275.027344 L 177.191406 275.027344 L 177.191406 326.8125 L 94.761719 326.8125 Z M 94.761719 275.027344 "/>
</g>
<g clip-path="url(#H6VYxvEZv8__clip12)" clip-rule="nonzero">
<path style=" stroke:none;fill-rule:nonzero;fill:rgb(100%,38.823529%,51.764706%);fill-opacity:0.498039;" d="M 94.761719 381.597656 L 233.808594 381.597656 L 233.808594 435.382812 L 94.761719 435.382812 Z M 94.761719 381.597656 "/>
</g>
<g clip-path="url(#H6VYxvEZv8__clip13)" clip-rule="nonzero">
<path style=" stroke:none;fill-rule:evenodd;fill:rgb(100%,38.823529%,51.764706%);fill-opacity:1;" d="M 94.761719 381.597656 L 233.808594 381.597656 L 233.808594 435.382812 L 94.761719 435.382812 Z M 94.761719 382.597656 L 232.808594 382.597656 L 232.808594 434.382812 L 94.761719 434.382812 Z M 94.761719 382.597656 "/>
</g>
<g clip-path="url(#H6VYxvEZv8__clip14)" clip-rule="nonzero">
<path style=" stroke:none;fill-rule:nonzero;fill:rgb(100%,38.823529%,51.764706%);fill-opacity:0.498039;" d="M 94.761719 489.164062 L 650.953125 489.164062 L 650.953125 542.949219 L 94.761719 542.949219 Z M 94.761719 489.164062 "/>
</g>
<g clip-path="url(#H6VYxvEZv8__clip15)" clip-rule="nonzero">
<path style=" stroke:none;fill-rule:evenodd;fill:rgb(100%,38.823529%,51.764706%);fill-opacity:1;" d="M 94.761719 489.164062 L 650.953125 489.164062 L 650.953125 542.949219 L 94.761719 542.949219 Z M 94.761719 490.164062 L 649.953125 490.164062 L 649.953125 541.949219 L 94.761719 541.949219 Z M 94.761719 490.164062 "/>
</g>
</g>
</svg>
